<svg xmlns="http://www.w3.org/2000/svg" width="528.915" height="383.339" viewBox="0 0 528.915 383.339">
  <g id="Group_116" data-name="Group 116" transform="translate(-183.68 -962.224)">
    <g id="Group_115" data-name="Group 115" transform="translate(183.68 962.224)">
      <ellipse id="Ellipse_1" data-name="Ellipse 1" cx="255.006" cy="17.647" rx="255.006" ry="17.647" transform="translate(0 348.044)" fill="#579bce"/>
      <g id="Group_51" data-name="Group 51" transform="translate(346.273 0)">
        <circle id="Ellipse_2" data-name="Ellipse 2" cx="60.23" cy="60.23" r="60.23" transform="matrix(0.856, -0.517, 0.517, 0.856, 0, 62.271)" fill="#fff" opacity="0.25"/>
        <g id="Group_49" data-name="Group 49" transform="translate(47.1 46.013)">
          <g id="Group_48" data-name="Group 48">
            <g id="Group_26" data-name="Group 26" transform="translate(0 23.027)">
              <path id="Path_7" data-name="Path 7" d="M591.829,179.4a9.51,9.51,0,1,1-6.793-11.606A9.509,9.509,0,0,1,591.829,179.4Z" transform="translate(-564.139 -158.507)" fill="#fff"/>
              <g id="Group_10" data-name="Group 10" transform="translate(11.646)">
                <g id="Group_7" data-name="Group 7" transform="translate(6.989)">
                  <path id="Path_8" data-name="Path 8" d="M586.2,164.531a2.717,2.717,0,1,1-1.941-3.316A2.718,2.718,0,0,1,586.2,164.531Z" transform="translate(-579.589 -161.126)" fill="#fff"/>
                  <g id="Group_6" data-name="Group 6" transform="translate(0 1.52)">
                    <rect id="Rectangle_2" data-name="Rectangle 2" width="11.774" height="2.542" transform="matrix(0.253, -0.967, 0.967, 0.253, 0, 11.39)" fill="#fff"/>
                  </g>
                </g>
                <g id="Group_9" data-name="Group 9" transform="translate(0 23.425)">
                  <path id="Path_9" data-name="Path 9" d="M575.1,185.5a2.717,2.717,0,1,1,1.94,3.316A2.717,2.717,0,0,1,575.1,185.5Z" transform="translate(-575.007 -175.35)" fill="#fff"/>
                  <g id="Group_8" data-name="Group 8" transform="translate(1.257)">
                    <rect id="Rectangle_3" data-name="Rectangle 3" width="11.774" height="2.543" transform="matrix(0.253, -0.967, 0.967, 0.253, 0, 11.39)" fill="#fff"/>
                  </g>
                </g>
              </g>
              <g id="Group_15" data-name="Group 15" transform="translate(0 11.646)">
                <g id="Group_12" data-name="Group 12" transform="translate(23.425 6.989)">
                  <path id="Path_10" data-name="Path 10" d="M591.131,180.567a2.717,2.717,0,1,1,3.316-1.941A2.718,2.718,0,0,1,591.131,180.567Z" transform="translate(-580.982 -173.957)" fill="#fff"/>
                  <g id="Group_11" data-name="Group 11">
                    <rect id="Rectangle_4" data-name="Rectangle 4" width="2.544" height="11.774" transform="translate(0 2.461) rotate(-75.339)" fill="#fff"/>
                  </g>
                </g>
                <g id="Group_14" data-name="Group 14">
                  <path id="Path_11" data-name="Path 11" d="M570.163,169.464a2.717,2.717,0,1,1-3.316,1.94A2.717,2.717,0,0,1,570.163,169.464Z" transform="translate(-566.758 -169.375)" fill="#fff"/>
                  <g id="Group_13" data-name="Group 13" transform="translate(1.52 1.258)">
                    <rect id="Rectangle_5" data-name="Rectangle 5" width="2.543" height="11.774" transform="translate(0 2.461) rotate(-75.339)" fill="#fff"/>
                  </g>
                </g>
              </g>
              <g id="Group_20" data-name="Group 20" transform="translate(7.538 1.702)">
                <g id="Group_17" data-name="Group 17">
                  <path id="Path_12" data-name="Path 12" d="M577.16,163.676a2.717,2.717,0,1,1-3.719-.973A2.717,2.717,0,0,1,577.16,163.676Z" transform="translate(-572.097 -162.331)" fill="#fff"/>
                  <g id="Group_16" data-name="Group 16" transform="translate(1.162 1.293)">
                    <rect id="Rectangle_6" data-name="Rectangle 6" width="2.543" height="11.775" transform="matrix(0.863, -0.505, 0.505, 0.863, 0, 1.285)" fill="#fff"/>
                  </g>
                </g>
                <g id="Group_19" data-name="Group 19" transform="translate(12.6 20.836)">
                  <path id="Path_13" data-name="Path 13" d="M584.135,186.354a2.717,2.717,0,1,1,3.717.973A2.717,2.717,0,0,1,584.135,186.354Z" transform="translate(-579.893 -174.959)" fill="#fff"/>
                  <g id="Group_18" data-name="Group 18">
                    <rect id="Rectangle_7" data-name="Rectangle 7" width="2.543" height="11.774" transform="translate(0 1.285) rotate(-30.341)" fill="#fff"/>
                  </g>
                </g>
              </g>
              <g id="Group_25" data-name="Group 25" transform="translate(1.702 7.538)">
                <g id="Group_22" data-name="Group 22" transform="translate(20.836)">
                  <path id="Path_14" data-name="Path 14" d="M591.986,171.528a2.717,2.717,0,1,1,.973-3.719A2.718,2.718,0,0,1,591.986,171.528Z" transform="translate(-580.591 -166.465)" fill="#fff"/>
                  <g id="Group_21" data-name="Group 21" transform="translate(0 1.162)">
                    <rect id="Rectangle_8" data-name="Rectangle 8" width="11.774" height="2.543" transform="translate(0 5.948) rotate(-30.344)" fill="#fff"/>
                  </g>
                </g>
                <g id="Group_24" data-name="Group 24" transform="translate(0 12.598)">
                  <path id="Path_15" data-name="Path 15" d="M569.308,178.5a2.717,2.717,0,1,1-.973,3.717A2.717,2.717,0,0,1,569.308,178.5Z" transform="translate(-567.963 -174.26)" fill="#fff"/>
                  <g id="Group_23" data-name="Group 23" transform="translate(1.293)">
                    <rect id="Rectangle_9" data-name="Rectangle 9" width="11.775" height="2.543" transform="matrix(0.863, -0.505, 0.505, 0.863, 0, 5.949)" fill="#fff"/>
                  </g>
                </g>
              </g>
            </g>
            <g id="Group_47" data-name="Group 47" transform="translate(45.216 32.492)">
              <path id="Path_16" data-name="Path 16" d="M611.023,176.752a4.642,4.642,0,1,1-3.316-5.666A4.642,4.642,0,0,1,611.023,176.752Z" transform="translate(-597.507 -166.552)" fill="#fff"/>
              <g id="Group_31" data-name="Group 31" transform="translate(5.685)">
                <g id="Group_28" data-name="Group 28" transform="translate(3.602)">
                  <path id="Path_17" data-name="Path 17" d="M608.274,169.492a1.326,1.326,0,1,1-.947-1.618A1.324,1.324,0,0,1,608.274,169.492Z" transform="translate(-605.239 -167.83)" fill="#fff"/>
                  <g id="Group_27" data-name="Group 27" transform="translate(0 0.792)">
                    <path id="Path_18" data-name="Path 18" d="M606.182,174.165l-.819-.215,1.455-5.56.819.215Z" transform="translate(-605.363 -168.391)" fill="#fff"/>
                  </g>
                </g>
                <g id="Group_30" data-name="Group 30" transform="translate(0 11.484)">
                  <path id="Path_19" data-name="Path 19" d="M602.856,179.726a1.326,1.326,0,1,1,.947,1.619A1.325,1.325,0,0,1,602.856,179.726Z" transform="translate(-602.812 -174.823)" fill="#fff"/>
                  <g id="Group_29" data-name="Group 29" transform="translate(0.802)">
                    <rect id="Rectangle_10" data-name="Rectangle 10" width="5.747" height="0.847" transform="translate(0 5.558) rotate(-75.29)" fill="#fff"/>
                  </g>
                </g>
              </g>
              <g id="Group_36" data-name="Group 36" transform="translate(0 5.684)">
                <g id="Group_33" data-name="Group 33" transform="translate(11.485 3.601)">
                  <path id="Path_20" data-name="Path 20" d="M610.682,177.319a1.327,1.327,0,1,1,1.619-.947A1.327,1.327,0,0,1,610.682,177.319Z" transform="translate(-605.779 -174.283)" fill="#fff"/>
                  <g id="Group_32" data-name="Group 32">
                    <rect id="Rectangle_11" data-name="Rectangle 11" width="0.848" height="5.746" transform="translate(0 0.821) rotate(-75.337)" fill="#fff"/>
                  </g>
                </g>
                <g id="Group_35" data-name="Group 35">
                  <path id="Path_21" data-name="Path 21" d="M600.448,171.9a1.327,1.327,0,1,1-1.619.947A1.326,1.326,0,0,1,600.448,171.9Z" transform="translate(-598.785 -171.856)" fill="#fff"/>
                  <g id="Group_34" data-name="Group 34" transform="translate(0.791 0.804)">
                    <rect id="Rectangle_12" data-name="Rectangle 12" width="0.848" height="5.747" transform="translate(0 0.82) rotate(-75.34)" fill="#fff"/>
                  </g>
                </g>
              </g>
              <g id="Group_41" data-name="Group 41" transform="translate(3.679 0.831)">
                <g id="Group_38" data-name="Group 38">
                  <path id="Path_22" data-name="Path 22" d="M603.863,169.074a1.327,1.327,0,1,1-1.814-.474A1.328,1.328,0,0,1,603.863,169.074Z" transform="translate(-601.391 -168.418)" fill="#fff"/>
                  <g id="Group_37" data-name="Group 37" transform="translate(0.738 0.73)">
                    <path id="Path_23" data-name="Path 23" d="M604.818,174.325l-2.9-4.96.731-.429,2.9,4.961Z" transform="translate(-601.914 -168.936)" fill="#fff"/>
                  </g>
                </g>
                <g id="Group_40" data-name="Group 40" transform="translate(6.32 10.269)">
                  <path id="Path_24" data-name="Path 24" d="M607.267,180.143a1.327,1.327,0,1,1,1.816.476A1.326,1.326,0,0,1,607.267,180.143Z" transform="translate(-605.367 -174.681)" fill="#fff"/>
                  <g id="Group_39" data-name="Group 39">
                    <rect id="Rectangle_13" data-name="Rectangle 13" width="0.847" height="5.747" transform="matrix(0.863, -0.505, 0.505, 0.863, 0, 0.428)" fill="#fff"/>
                  </g>
                </g>
              </g>
              <g id="Group_46" data-name="Group 46" transform="translate(0.831 3.679)">
                <g id="Group_43" data-name="Group 43" transform="translate(10.268)">
                  <path id="Path_25" data-name="Path 25" d="M611.1,172.907a1.326,1.326,0,1,1,.474-1.814A1.325,1.325,0,0,1,611.1,172.907Z" transform="translate(-605.636 -170.436)" fill="#fff"/>
                  <g id="Group_42" data-name="Group 42" transform="translate(0 0.739)">
                    <rect id="Rectangle_14" data-name="Rectangle 14" width="5.746" height="0.848" transform="matrix(0.864, -0.504, 0.504, 0.864, 0, 2.898)" fill="#fff"/>
                  </g>
                </g>
                <g id="Group_45" data-name="Group 45" transform="translate(0 6.319)">
                  <path id="Path_26" data-name="Path 26" d="M600.03,176.312a1.326,1.326,0,1,1-.474,1.814A1.325,1.325,0,0,1,600.03,176.312Z" transform="translate(-599.374 -174.411)" fill="#fff"/>
                  <g id="Group_44" data-name="Group 44" transform="translate(0.731)">
                    <path id="Path_27" data-name="Path 27" d="M600.319,178.547l-.427-.732,4.961-2.9.427.732Z" transform="translate(-599.892 -174.912)" fill="#fff"/>
                  </g>
                </g>
              </g>
            </g>
            <path id="Path_28" data-name="Path 28" d="M597.976,155.464a4.076,4.076,0,1,0,2.911,4.975A4.077,4.077,0,0,0,597.976,155.464Z" transform="translate(-556.006 -140.486)" fill="#fff"/>
            <path id="Path_29" data-name="Path 29" d="M596.742,186.574a1.812,1.812,0,1,0,1.295,2.211A1.811,1.811,0,0,0,596.742,186.574Z" transform="translate(-555.345 -127.644)" fill="#fff"/>
            <path id="Path_30" data-name="Path 30" d="M612.776,159.275a1.812,1.812,0,1,1-1.295-2.211A1.812,1.812,0,0,1,612.776,159.275Z" transform="translate(-549.276 -139.796)" fill="#fff"/>
            <path id="Path_31" data-name="Path 31" d="M578.121,151.931a1.812,1.812,0,1,0,1.295,2.211A1.812,1.812,0,0,0,578.121,151.931Z" transform="translate(-563.013 -141.91)" fill="#fff"/>
            <path id="Path_32" data-name="Path 32" d="M593.53,147.086a1.812,1.812,0,1,1-1.295-2.211A1.812,1.812,0,0,1,593.53,147.086Z" transform="translate(-557.201 -144.816)" fill="#fff"/>
          </g>
        </g>
        <g id="Group_50" data-name="Group 50" transform="translate(16.945 16.944)" opacity="0.25">
          <path id="Path_33" data-name="Path 33" d="M611.259,255.745a65.758,65.758,0,1,1,63.489-49.131h0a65.825,65.825,0,0,1-63.489,49.131Zm-.1-120.5a54.724,54.724,0,1,0,52.928,68.577h0a54.741,54.741,0,0,0-52.928-68.577Z" transform="translate(-545.399 -124.226)" fill="#fff"/>
        </g>
      </g>
      <g id="Group_70" data-name="Group 70" transform="translate(228.156 105)">
        <path id="Path_34" data-name="Path 34" d="M453.437,352.3l-1.234-.314,13.265-59.49,4.779,1.217Z" transform="translate(-448.714 -142.989)" fill="#fff"/>
        <g id="Group_52" data-name="Group 52" transform="translate(1.987 28.374)" opacity="0.5">
          <path id="Path_35" data-name="Path 35" d="M489.483,325.409l-38.344-9.768L478.889,206.7l38.344,9.767Zm-35.289-11.582,33.475,8.527,26.509-104.078L480.7,209.75Z" transform="translate(-451.139 -206.695)" fill="#fff"/>
        </g>
        <rect id="Rectangle_15" data-name="Rectangle 15" width="15.006" height="23.581" transform="translate(47.382 8.854) rotate(14.29)" fill="#2760ff"/>
        <path id="Path_36" data-name="Path 36" d="M467.168,304.316l-8.043-2.048,2.976-16.775,10.477,2.669Z" transform="translate(-445.863 -145.872)" fill="#2760ff"/>
        <rect id="Rectangle_16" data-name="Rectangle 16" width="5.465" height="23.581" transform="matrix(0.969, 0.247, -0.247, 0.969, 56.627, 11.209)" fill="#13369c"/>
        <rect id="Rectangle_17" data-name="Rectangle 17" width="29.002" height="57.088" transform="translate(22.283 79.042) rotate(14.29)" fill="#ff2c4f"/>
        <rect id="Rectangle_18" data-name="Rectangle 18" width="37.685" height="6.909" transform="matrix(0.969, 0.247, -0.247, 0.969, 37.936, 0)" fill="#1c45c3"/>
        <rect id="Rectangle_19" data-name="Rectangle 19" width="9.421" height="109.913" transform="matrix(0.969, 0.247, -0.247, 0.969, 54.572, 35.996)" fill="#fff" opacity="0.25"/>
        <rect id="Rectangle_20" data-name="Rectangle 20" width="42.709" height="6.909" transform="translate(28.99 24.943) rotate(14.29)" fill="#1c45c3"/>
        <rect id="Rectangle_21" data-name="Rectangle 21" width="42.709" height="6.909" transform="translate(1.705 132.064) rotate(14.29)" fill="#1c45c3"/>
        <g id="Group_69" data-name="Group 69" transform="translate(8.356 34.18)">
          <g id="Group_53" data-name="Group 53" transform="translate(23.565)">
            <rect id="Rectangle_22" data-name="Rectangle 22" width="2.717" height="10.467" transform="translate(0 2.633) rotate(-75.71)" fill="#13369c"/>
          </g>
          <g id="Group_54" data-name="Group 54" transform="translate(21.993 6.168)">
            <rect id="Rectangle_23" data-name="Rectangle 23" width="2.717" height="10.468" transform="translate(0 2.633) rotate(-75.711)" fill="#13369c"/>
          </g>
          <g id="Group_55" data-name="Group 55" transform="translate(20.423 12.335)">
            <rect id="Rectangle_24" data-name="Rectangle 24" width="2.717" height="10.467" transform="translate(0 2.633) rotate(-75.706)" fill="#13369c"/>
          </g>
          <g id="Group_56" data-name="Group 56" transform="translate(18.851 18.502)">
            <rect id="Rectangle_25" data-name="Rectangle 25" width="2.717" height="15.074" transform="translate(0 2.633) rotate(-75.708)" fill="#13369c"/>
          </g>
          <g id="Group_57" data-name="Group 57" transform="translate(17.281 24.67)">
            <rect id="Rectangle_26" data-name="Rectangle 26" width="2.717" height="10.468" transform="translate(0 2.633) rotate(-75.711)" fill="#13369c"/>
          </g>
          <g id="Group_58" data-name="Group 58" transform="translate(15.709 30.838)">
            <rect id="Rectangle_27" data-name="Rectangle 27" width="2.717" height="10.468" transform="translate(0 2.633) rotate(-75.711)" fill="#13369c"/>
          </g>
          <g id="Group_59" data-name="Group 59" transform="translate(14.139 37.005)">
            <rect id="Rectangle_28" data-name="Rectangle 28" width="2.717" height="10.468" transform="matrix(0.247, -0.969, 0.969, 0.247, 0, 2.633)" fill="#13369c"/>
          </g>
          <g id="Group_60" data-name="Group 60" transform="translate(12.568 43.173)">
            <rect id="Rectangle_29" data-name="Rectangle 29" width="2.717" height="15.074" transform="translate(0 2.633) rotate(-75.711)" fill="#13369c"/>
          </g>
          <g id="Group_61" data-name="Group 61" transform="translate(10.997 49.34)">
            <rect id="Rectangle_30" data-name="Rectangle 30" width="2.717" height="10.468" transform="translate(0 2.633) rotate(-75.711)" fill="#13369c"/>
          </g>
          <g id="Group_62" data-name="Group 62" transform="translate(9.426 55.508)">
            <rect id="Rectangle_31" data-name="Rectangle 31" width="2.717" height="10.467" transform="matrix(0.247, -0.969, 0.969, 0.247, 0, 2.633)" fill="#13369c"/>
          </g>
          <g id="Group_63" data-name="Group 63" transform="translate(7.855 61.675)">
            <rect id="Rectangle_32" data-name="Rectangle 32" width="2.717" height="10.468" transform="translate(0 2.633) rotate(-75.711)" fill="#13369c"/>
          </g>
          <g id="Group_64" data-name="Group 64" transform="translate(6.284 67.843)">
            <rect id="Rectangle_33" data-name="Rectangle 33" width="2.717" height="15.074" transform="translate(0 2.633) rotate(-75.713)" fill="#13369c"/>
          </g>
          <g id="Group_65" data-name="Group 65" transform="translate(4.714 74.01)">
            <rect id="Rectangle_34" data-name="Rectangle 34" width="2.717" height="10.467" transform="translate(0 2.633) rotate(-75.709)" fill="#13369c"/>
          </g>
          <g id="Group_66" data-name="Group 66" transform="translate(3.142 80.179)">
            <rect id="Rectangle_35" data-name="Rectangle 35" width="2.717" height="10.468" transform="translate(0 2.633) rotate(-75.711)" fill="#13369c"/>
          </g>
          <g id="Group_67" data-name="Group 67" transform="translate(1.572 86.346)">
            <rect id="Rectangle_36" data-name="Rectangle 36" width="2.717" height="10.467" transform="translate(0 2.633) rotate(-75.709)" fill="#13369c"/>
          </g>
          <g id="Group_68" data-name="Group 68" transform="translate(0 92.513)">
            <rect id="Rectangle_37" data-name="Rectangle 37" width="2.717" height="10.469" transform="translate(0 2.633) rotate(-75.704)" fill="#13369c"/>
          </g>
        </g>
      </g>
      <g id="Group_77" data-name="Group 77" transform="translate(33.475 102.718)">
        <g id="Group_75" data-name="Group 75" transform="translate(27.446 14.395)">
          <g id="Group_71" data-name="Group 71" transform="translate(0.002 24.405)">
            <rect id="Rectangle_38" data-name="Rectangle 38" width="2.717" height="64.122" transform="translate(0 2.717) rotate(-89.901)" fill="#13369c"/>
          </g>
          <g id="Group_72" data-name="Group 72" transform="translate(44.483 12.313)">
            <rect id="Rectangle_39" data-name="Rectangle 39" width="19.643" height="2.717" fill="#13369c"/>
          </g>
          <g id="Group_73" data-name="Group 73" transform="translate(0 12.202)">
            <rect id="Rectangle_40" data-name="Rectangle 40" width="2.717" height="32.872" transform="translate(0 2.717) rotate(-89.808)" fill="#13369c"/>
          </g>
          <g id="Group_74" data-name="Group 74" transform="translate(0.002)">
            <rect id="Rectangle_41" data-name="Rectangle 41" width="2.718" height="63.977" transform="matrix(0.002, -1, 1, 0.002, 0, 2.717)" fill="#13369c"/>
          </g>
        </g>
        <g id="Group_76" data-name="Group 76">
          <path id="Path_37" data-name="Path 37" d="M407.038,257.71l-16.6-16.6-50.592-.048a28.041,28.041,0,0,1,.027-56.082h.027l62.483.059a28.039,28.039,0,0,1,4.65,55.686ZM339.877,187.7a25.323,25.323,0,0,0-.024,50.647l51.714.049,12.756,12.754v-12.8l1.19-.148a25.321,25.321,0,0,0-3.129-50.445L339.9,187.7Z" transform="translate(-311.836 -184.981)" fill="#13369c"/>
        </g>
      </g>
      <g id="Group_78" data-name="Group 78" transform="translate(177.25 56.442)">
        <rect id="Rectangle_42" data-name="Rectangle 42" width="21.99" height="269.531" transform="translate(29.203 277.174) rotate(180)" fill="#fff" opacity="0.5"/>
        <rect id="Rectangle_43" data-name="Rectangle 43" width="11.121" height="269.531" transform="translate(49.91 278.056) rotate(180)" fill="#fff" opacity="0.25"/>
        <rect id="Rectangle_44" data-name="Rectangle 44" width="11.121" height="269.531" transform="translate(125.085 278.056) rotate(180)" fill="#fff" opacity="0.25"/>
        <rect id="Rectangle_45" data-name="Rectangle 45" width="39.198" height="269.531" transform="translate(173.115 278.056) rotate(180)" fill="#fff" opacity="0.5"/>
        <rect id="Rectangle_46" data-name="Rectangle 46" width="165.902" height="16.569" transform="translate(173.115 19.66) rotate(180)" fill="#1c45c3"/>
        <rect id="Rectangle_47" data-name="Rectangle 47" width="179.298" height="6.183" transform="translate(179.298 6.183) rotate(180)" fill="#13369c"/>
        <rect id="Rectangle_48" data-name="Rectangle 48" width="165.902" height="33.138" transform="translate(7.213 272.622)" fill="#2760ff"/>
        <rect id="Rectangle_49" data-name="Rectangle 49" width="165.902" height="16.569" transform="translate(7.213 289.191)" fill="#1c45c3"/>
        <rect id="Rectangle_50" data-name="Rectangle 50" width="173.015" height="6.183" transform="translate(6.283 302.668)" fill="#13369c"/>
      </g>
      <g id="Group_86" data-name="Group 86" transform="translate(302.864 79.991)">
        <g id="Group_81" data-name="Group 81" transform="translate(19.579 174.014)" opacity="0.5">
          <rect id="Rectangle_51" data-name="Rectangle 51" width="120.562" height="15.457" fill="#fff"/>
          <g id="Group_80" data-name="Group 80" transform="translate(14.955)">
            <g id="Group_79" data-name="Group 79">
              <path id="Path_38" data-name="Path 38" d="M539.633,307.6l14.505-15.457H541.614L527.109,307.6Z" transform="translate(-527.109 -292.14)" fill="#bbcaff"/>
              <path id="Path_39" data-name="Path 39" d="M578.533,292.14H566.009L551.5,307.6h12.524Z" transform="translate(-517.063 -292.14)" fill="#bbcaff"/>
              <path id="Path_40" data-name="Path 40" d="M602.928,292.14H590.4L575.9,307.6h12.524Z" transform="translate(-507.017 -292.14)" fill="#bbcaff"/>
            </g>
          </g>
        </g>
        <g id="Group_85" data-name="Group 85">
          <rect id="Rectangle_52" data-name="Rectangle 52" width="20.609" height="14.426" transform="translate(70.07 194.623)" fill="#1c45c3"/>
          <g id="Group_82" data-name="Group 82" transform="translate(93.256 59.218)">
            <path id="Path_41" data-name="Path 41" d="M568.7,409.606V381.784A88.618,88.618,0,0,0,631.366,230.5l19.673-19.675A116.442,116.442,0,0,1,568.7,409.606Z" transform="translate(-568.703 -210.828)" fill="#073bab"/>
          </g>
          <g id="Group_83" data-name="Group 83" transform="translate(95.625)">
            <rect id="Rectangle_53" data-name="Rectangle 53" width="21.639" height="34.005" transform="translate(115.125 0) rotate(45)" fill="#2760ff"/>
            <rect id="Rectangle_54" data-name="Rectangle 54" width="4.122" height="34.005" transform="translate(127.512 12.387) rotate(45)" fill="#13369c"/>
            <rect id="Rectangle_55" data-name="Rectangle 55" width="10.305" height="29.883" transform="matrix(0.707, -0.707, 0.707, 0.707, 0, 109.296)" fill="#2760ff"/>
            <rect id="Rectangle_56" data-name="Rectangle 56" width="38.127" height="113.349" transform="matrix(0.707, 0.707, -0.707, 0.707, 93.265, 10.201)" fill="#1e4bd0"/>
            <rect id="Rectangle_57" data-name="Rectangle 57" width="12.365" height="113.349" transform="translate(111.481 28.417) rotate(45)" fill="#2760ff"/>
            <rect id="Rectangle_58" data-name="Rectangle 58" width="38.127" height="9.274" transform="translate(96.18 7.286) rotate(45)" fill="#13369c"/>
            <path id="Path_42" data-name="Path 42" d="M608.331,259.84l-26.96-26.96-5.829,11.658,21.13,21.13Z" transform="translate(-568.256 -142.529)" fill="#13369c"/>
          </g>
          <g id="Group_84" data-name="Group 84" transform="translate(172.64 118.924)">
            <circle id="Ellipse_3" data-name="Ellipse 3" cx="17.518" cy="17.518" r="17.518" transform="translate(0 13.407) rotate(-22.5)" fill="#1e4bd0"/>
            <circle id="Ellipse_4" data-name="Ellipse 4" cx="10.82" cy="10.82" r="10.82" transform="translate(12.068 12.068)" fill="#2760ff"/>
          </g>
          <path id="Path_43" data-name="Path 43" d="M673.66,391.02h-165.9V314.766H654.6c7.444,7.446,11.619,11.619,19.063,19.064Z" transform="translate(-500.544 -108.809)" fill="#2760ff"/>
          <rect id="Rectangle_59" data-name="Rectangle 59" width="146.324" height="6.183" transform="translate(7.213 189.47)" fill="#13369c"/>
          <rect id="Rectangle_60" data-name="Rectangle 60" width="165.902" height="38.127" transform="translate(7.213 244.084)" fill="#073bab"/>
          <rect id="Rectangle_61" data-name="Rectangle 61" width="179.298" height="6.183" transform="translate(0 279.12)" fill="#13369c"/>
        </g>
      </g>
      <g id="Group_97" data-name="Group 97" transform="translate(34.835 224.439)">
        <path id="Path_44" data-name="Path 44" d="M404.92,298.5h-9.466V287.878H335.676V298.5h-8.594A14.283,14.283,0,0,0,312.8,312.784V390.9a14.283,14.283,0,0,0,14.283,14.283H404.92A14.284,14.284,0,0,0,419.2,390.9V312.784A14.285,14.285,0,0,0,404.92,298.5Z" transform="translate(-312.799 -264.33)" fill="#fff" opacity="0.5"/>
        <path id="Rectangle_62" data-name="Rectangle 62" d="M0,0H100.01a0,0,0,0,1,0,0V73.817a9.51,9.51,0,0,1-9.51,9.51H9.51A9.51,9.51,0,0,1,0,73.817V0A0,0,0,0,1,0,0Z" transform="translate(3.198 54.343)" fill="#ff2c4f"/>
        <path id="Path_45" data-name="Path 45" d="M326.426,401.292H354.5V311.365a14.039,14.039,0,0,0-14.039-14.039h0a14.038,14.038,0,0,0-14.037,14.039Z" transform="translate(-307.187 -260.439)" fill="#fff" opacity="0.25"/>
        <rect id="Rectangle_63" data-name="Rectangle 63" width="75.863" height="45.636" transform="translate(15.271 64.237)" fill="#2760ff"/>
        <g id="Group_87" data-name="Group 87" transform="translate(37.353 71.552)">
          <rect id="Rectangle_64" data-name="Rectangle 64" width="8.152" height="31.7" transform="translate(31.7 11.774) rotate(90)" fill="#fff"/>
          <rect id="Rectangle_65" data-name="Rectangle 65" width="8.152" height="31.7" transform="translate(11.774)" fill="#fff"/>
        </g>
        <rect id="Rectangle_66" data-name="Rectangle 66" width="59.778" height="7.246" transform="translate(22.877 21.737)" fill="#fff" opacity="0.5"/>
        <rect id="Rectangle_67" data-name="Rectangle 67" width="72.56" height="25.004" transform="translate(16.537)" fill="#2760ff"/>
        <g id="Group_96" data-name="Group 96" transform="translate(21.066 3.849)">
          <g id="Group_88" data-name="Group 88">
            <rect id="Rectangle_68" data-name="Rectangle 68" width="2.717" height="17.209" fill="#13369c"/>
          </g>
          <g id="Group_89" data-name="Group 89" transform="translate(8.669)">
            <rect id="Rectangle_69" data-name="Rectangle 69" width="2.717" height="17.209" fill="#13369c"/>
          </g>
          <g id="Group_90" data-name="Group 90" transform="translate(17.338)">
            <rect id="Rectangle_70" data-name="Rectangle 70" width="2.717" height="17.209" fill="#13369c"/>
          </g>
          <g id="Group_91" data-name="Group 91" transform="translate(26.007)">
            <rect id="Rectangle_71" data-name="Rectangle 71" width="2.717" height="17.209" fill="#13369c"/>
          </g>
          <g id="Group_92" data-name="Group 92" transform="translate(34.677)">
            <rect id="Rectangle_72" data-name="Rectangle 72" width="2.717" height="17.209" fill="#13369c"/>
          </g>
          <g id="Group_93" data-name="Group 93" transform="translate(43.345)">
            <rect id="Rectangle_73" data-name="Rectangle 73" width="2.717" height="17.209" fill="#13369c"/>
          </g>
          <g id="Group_94" data-name="Group 94" transform="translate(52.015)">
            <rect id="Rectangle_74" data-name="Rectangle 74" width="2.717" height="17.209" fill="#13369c"/>
          </g>
          <g id="Group_95" data-name="Group 95" transform="translate(60.684)">
            <rect id="Rectangle_75" data-name="Rectangle 75" width="2.717" height="17.209" fill="#13369c"/>
          </g>
        </g>
        <rect id="Rectangle_76" data-name="Rectangle 76" width="75.175" height="6.34" transform="translate(15.632 19.926)" fill="#1c45c3"/>
      </g>
      <g id="Group_114" data-name="Group 114" transform="translate(134.97 145.084)">
        <path id="Path_46" data-name="Path 46" d="M418.37,215.007c19.529.793,18.421,35.572,18.421,35.572L400,243.325S397.974,214.18,418.37,215.007Z" transform="translate(-377.047 -214.99)" fill="#13369c"/>
        <g id="Group_98" data-name="Group 98" transform="translate(18.184 109.429)">
          <path id="Path_47" data-name="Path 47" d="M416.235,381.282c0-2.825-19.772-13.182-19.584,0Z" transform="translate(-396.59 -258.632)" fill="#13369c"/>
          <path id="Path_48" data-name="Path 48" d="M404.954,412.325s-7.532,2.125-7.532,0c0-37.331.942-67.526.942-67.526l-1.756-51.254L420.96,292.5l-7.533,53.163Z" transform="translate(-396.607 -292.5)" fill="#13369c"/>
        </g>
        <g id="Group_99" data-name="Group 99" transform="translate(36.073 109.429)">
          <path id="Path_49" data-name="Path 49" d="M433.575,381.282c0-2.825-19.772-13.182-19.584,0Z" transform="translate(-407.338 -258.632)" fill="#13369c"/>
          <path id="Path_50" data-name="Path 50" d="M424.216,412.325s-7.532,2.125-7.532,0c0-37.331.94-67.526.94-67.526l-8.347-51.254,24.354-1.045-.942,53.163Z" transform="translate(-409.278 -292.5)" fill="#13369c"/>
        </g>
        <path id="Path_51" data-name="Path 51" d="M395.726,306.15s26.584,7.724,34.277,2.684c6.177-4.048,6.177-19.593,6.177-19.593H395.726Z" transform="translate(-378.785 -184.413)" fill="#13369c"/>
        <path id="Path_52" data-name="Path 52" d="M438.681,314.055c-8.786,0-38.831-1.783-38.831-1.783s-5.194-50.177-3.387-58.025c1.779-7.728,8.527-12.332,16.106-13.651a26.844,26.844,0,0,1,10.23.2c8.187,1.783,15.086,7.85,15.883,16.542C440.381,275.914,438.681,295.385,438.681,314.055Z" transform="translate(-378.639 -204.608)" fill="#6ec2ff"/>
        <g id="Group_107" data-name="Group 107" transform="translate(26.867 1.401)">
          <path id="Path_53" data-name="Path 53" d="M420.612,226.928c6.333,3.321,1.338,7.089.018,7.442Z" transform="translate(-395.405 -211.475)" fill="#ff8f85"/>
          <path id="Path_54" data-name="Path 54" d="M413.608,248.564c-5.721,0-5.306-6.225-5.307-11.755,0-2.771,9.075-3.9,9.184-.484C417.761,245.106,417.586,248.564,413.608,248.564Z" transform="translate(-400.477 -208.477)" fill="#ff8f85"/>
          <path id="Path_55" data-name="Path 55" d="M417.019,217.049c8.291-.73,11.455,8.7,11.061,17.285-.4,8.69-4.622,17-14.249,13.32C402.5,243.321,403.024,217.083,417.019,217.049Z" transform="translate(-401.473 -215.559)" fill="#ffaba6"/>
          <path id="Path_56" data-name="Path 56" d="M417.242,228.186Z" transform="translate(-396.793 -210.957)" fill="#ffaba6"/>
          <g id="Group_106" data-name="Group 106" transform="translate(13.896 18.9)">
            <g id="Group_102" data-name="Group 102" transform="translate(7.635)">
              <g id="Group_101" data-name="Group 101">
                <g id="Group_100" data-name="Group 100">
                  <path id="Path_57" data-name="Path 57" d="M418.008,230.265a.9.9,0,1,0,.9-.9A.9.9,0,0,0,418.008,230.265Z" transform="translate(-418.008 -229.369)" fill="#13369c"/>
                </g>
              </g>
            </g>
            <g id="Group_105" data-name="Group 105" transform="translate(0 0.017)">
              <g id="Group_104" data-name="Group 104">
                <g id="Group_103" data-name="Group 103">
                  <path id="Path_58" data-name="Path 58" d="M412.6,230.278a.9.9,0,1,0,.9-.9A.9.9,0,0,0,412.6,230.278Z" transform="translate(-412.6 -229.381)" fill="#13369c"/>
                </g>
              </g>
            </g>
          </g>
          <path id="Path_59" data-name="Path 59" d="M405.041,240.184s-3.594-9.826-1.765-12.353c18.53-25.589,26.471-1.765,26.471-1.765Z" transform="translate(-402.757 -215.982)" fill="#13369c"/>
        </g>
        <path id="Path_60" data-name="Path 60" d="M434.417,357.981,418.3,360.739l-3.291-120.114s10.021,1.391,13.236,4.043c8.824,7.286,3.529,55.076,3.529,55.076Z" transform="translate(-370.846 -204.433)" fill="#fff"/>
        <path id="Path_61" data-name="Path 61" d="M393.769,359.677c-3.175-48.4,2.841-61.739,2.841-61.739l-1.542-44.918a13.632,13.632,0,0,1,2.409-7.379c3.713-5.764,16.425-5.154,16.425-5.154l2.289,7.485,2.647,58.9-7.948,53.825Z" transform="translate(-379.972 -204.498)" fill="#fff"/>
        <g id="Group_108" data-name="Group 108" transform="translate(31.105 68.567)">
          <path id="Path_62" data-name="Path 62" d="M405.759,307.658H440.5l12.462-42.667H418.221Z" transform="translate(-405.759 -262.966)" fill="#1c45c3"/>
          <path id="Path_63" data-name="Path 63" d="M422.233,268.414h13.109l1.419-4.857h-13.11Z" transform="translate(-398.975 -263.557)" fill="#2760ff"/>
        </g>
        <g id="Group_112" data-name="Group 112" transform="translate(0 38.825)">
          <g id="Group_109" data-name="Group 109" transform="translate(30.693 49.855)">
            <path id="Path_64" data-name="Path 64" d="M416.644,283.84c4.794,0-3.006-9.96-10.065-4.293C401.73,283.438,414.161,283.84,416.644,283.84Z" transform="translate(-405.467 -277.803)" fill="#ff8f85"/>
          </g>
          <g id="Group_111" data-name="Group 111">
            <g id="Group_110" data-name="Group 110">
              <path id="Path_65" data-name="Path 65" d="M414.65,298.135l4.22-6.753L394.355,277.9s5.294-8.9,9.706-15.38c.952-1.395,1.036-17.141,1.036-17.141l-1.077-2.887c-4.49,1.41-21.132,35.651-20.261,37.956C385.851,285.982,414.65,298.135,414.65,298.135Z" transform="translate(-383.727 -242.49)" fill="#fff"/>
            </g>
          </g>
        </g>
        <g id="Group_113" data-name="Group 113" transform="translate(71.329 74.342)">
          <path id="Path_66" data-name="Path 66" d="M437.963,273.879c2.488.93,3.819-3.177,3.529-4.538C440.539,264.874,428.257,270.249,437.963,273.879Z" transform="translate(-434.25 -267.647)" fill="#ff8f85"/>
        </g>
      </g>
    </g>
  </g>
</svg>
