<svg xmlns="http://www.w3.org/2000/svg" width="751.402" height="505.211" viewBox="0 0 751.402 505.211">
  <g id="OBJECT" transform="translate(129.417 7.087)">
    <g id="Group_1" data-name="Group 1">
      <circle id="Ellipse_1" data-name="Ellipse 1" cx="139.24" cy="139.24" r="139.24" transform="translate(142.532 105.032)" fill="#7da3f4"/>
      <path id="Path_5" data-name="Path 5" d="M97.9,34.4c-.529.023-.966.655-1.2,1.588l-5.812-.109a14.832,14.832,0,0,0-2.787-5.311l4.134-4.625c.877.548,1.693.713,2.1.331.608-.572.062-2.139-1.22-3.5s-2.814-2-3.422-1.425c-.385.363-.3,1.126.132,1.983l-5.087,4.227A14.77,14.77,0,0,0,78.9,25.329l-.563-6.551c1-.263,1.68-.744,1.68-1.3,0-.835-1.515-1.512-3.384-1.512s-3.384.677-3.384,1.512c0,.53.611.994,1.533,1.264l-.411,6.579a14.78,14.78,0,0,0-5.914,2.253l-5.1-4.237c.436-.857.518-1.62.132-1.983-.607-.573-2.139.065-3.421,1.425s-1.828,2.928-1.221,3.5c.405.382,1.221.217,2.1-.331l4.15,4.644a14.831,14.831,0,0,0-2.774,5.292l-5.841.109c-.23-.933-.667-1.565-1.2-1.588-.834-.036-1.577,1.448-1.659,3.315s.529,3.411,1.363,3.447c.555.025,1.065-.633,1.371-1.621l5.38.7A14.812,14.812,0,0,0,64.3,48.379L60.98,52.091c-.877-.548-1.693-.713-2.1-.332-.607.573-.061,2.14,1.221,3.5s2.814,2,3.421,1.425c.386-.363.3-1.126-.132-1.983l3.8-3.16a14.82,14.82,0,0,0,7.3,3.189l.389,4.53c-1,.263-1.679.744-1.679,1.3,0,.835,1.515,1.512,3.384,1.512s3.384-.677,3.384-1.512c0-.53-.611-.994-1.534-1.264l.286-4.568a14.813,14.813,0,0,0,7.313-3.206L89.865,54.7c-.436.857-.517,1.62-.132,1.983.608.573,2.14-.065,3.422-1.425s1.828-2.928,1.22-3.5c-.4-.381-1.22-.216-2.1.332L88.934,48.35a14.811,14.811,0,0,0,2.541-8.107l5.349-.7c.306.988.816,1.646,1.372,1.621.834-.036,1.444-1.58,1.362-3.447S98.734,34.369,97.9,34.4Z" transform="translate(-183.03 -23.053)" fill="#7da3f4"/>
      <path id="Path_6" data-name="Path 6" d="M458.084,60.188c-.608.027-1.109.752-1.373,1.823l-6.672-.125a17.035,17.035,0,0,0-3.2-6.1l4.746-5.309c1.007.629,1.943.818,2.408.38.7-.658.07-2.457-1.4-4.018s-3.231-2.295-3.928-1.637c-.443.417-.349,1.293.151,2.276l-5.84,4.853a16.961,16.961,0,0,0-6.708-2.565l-.646-7.522c1.149-.3,1.928-.853,1.928-1.491,0-.959-1.739-1.736-3.885-1.736s-3.885.777-3.885,1.736c0,.607.7,1.14,1.76,1.451l-.472,7.552a16.965,16.965,0,0,0-6.789,2.587l-5.855-4.865c.5-.983.594-1.859.152-2.276-.7-.658-2.457.075-3.928,1.637s-2.1,3.36-1.4,4.018c.464.438,1.4.249,2.408-.38l4.764,5.33a17.028,17.028,0,0,0-3.184,6.076l-6.707.125c-.263-1.071-.765-1.8-1.372-1.823-.958-.042-1.811,1.662-1.9,3.806s.607,3.916,1.565,3.958c.637.028,1.223-.727,1.574-1.862l6.177.805a16.99,16.99,0,0,0,2.941,9.336L415.7,80.492c-1.007-.629-1.943-.818-2.408-.38-.7.657-.07,2.456,1.4,4.018s3.23,2.294,3.928,1.637c.442-.417.349-1.294-.152-2.277l4.367-3.628a17.01,17.01,0,0,0,8.38,3.661l.447,5.2c-1.148.3-1.928.854-1.928,1.492,0,.959,1.739,1.736,3.885,1.736s3.886-.777,3.886-1.736c0-.608-.7-1.141-1.761-1.451l.328-5.244a17.005,17.005,0,0,0,8.4-3.681l4.393,3.65c-.5.983-.594,1.86-.152,2.277.7.657,2.457-.076,3.928-1.637s2.1-3.361,1.4-4.018c-.465-.438-1.4-.249-2.408.38L447.791,76.2a17,17,0,0,0,2.916-9.307l6.142-.8c.352,1.135.937,1.89,1.575,1.862.958-.042,1.658-1.814,1.564-3.958S459.042,60.146,458.084,60.188Z" fill="#7da3f4"/>
      <path id="Path_172" data-name="Path 172" d="M436.86,51.351c-.354.016-.646.438-.8,1.062l-3.887-.073a9.924,9.924,0,0,0-1.864-3.552l2.765-3.093c.587.366,1.132.477,1.4.221.407-.383.041-1.431-.816-2.341s-1.882-1.337-2.288-.954c-.258.243-.2.753.088,1.326l-3.4,2.827a9.881,9.881,0,0,0-3.908-1.494l-.376-4.382c.669-.175,1.123-.5,1.123-.869,0-.559-1.013-1.011-2.263-1.011s-2.263.453-2.263,1.011c0,.354.409.664,1.025.845l-.275,4.4a9.883,9.883,0,0,0-3.955,1.507l-3.411-2.834c.292-.573.346-1.083.089-1.326-.407-.383-1.431.044-2.288.954s-1.223,1.957-.816,2.341c.27.255.816.145,1.4-.221l2.775,3.1a9.92,9.92,0,0,0-1.855,3.54l-3.907.073c-.153-.624-.446-1.046-.8-1.062-.558-.024-1.055.968-1.11,2.217s.354,2.281.912,2.306c.371.016.712-.424.917-1.085l3.6.469a9.9,9.9,0,0,0,1.713,5.439l-2.219,2.482c-.587-.366-1.132-.477-1.4-.221-.406.383-.041,1.431.817,2.341s1.882,1.336,2.288.954c.258-.243.2-.754-.089-1.326l2.544-2.113a9.909,9.909,0,0,0,4.882,2.133l.26,3.03c-.669.176-1.123.5-1.123.869,0,.559,1.013,1.011,2.263,1.011s2.264-.453,2.264-1.011c0-.354-.409-.665-1.026-.845l.191-3.055a9.906,9.906,0,0,0,4.89-2.144l2.559,2.126c-.292.573-.346,1.084-.089,1.326.407.383,1.431-.044,2.288-.954s1.223-1.958.817-2.341c-.271-.255-.816-.145-1.4.221l-2.236-2.5a9.9,9.9,0,0,0,1.7-5.422l3.578-.466c.205.661.546,1.1.918,1.085.558-.024.966-1.057.911-2.306S437.418,51.327,436.86,51.351Z" transform="translate(184.011 185.127)" fill="#7da3f4"/>
      <path id="Path_8" data-name="Path 8" d="M100.1,406.474c-.807.035-1.474,1-1.824,2.422l-8.867-.166a22.623,22.623,0,0,0-4.252-8.1l6.306-7.057c1.339.836,2.583,1.087,3.2.506.927-.874.093-3.265-1.863-5.34s-4.292-3.049-5.22-2.176c-.587.554-.463,1.719.2,3.026l-7.761,6.448a22.546,22.546,0,0,0-8.915-3.408l-.859-10c1.527-.4,2.563-1.134,2.563-1.982,0-1.274-2.312-2.307-5.163-2.307s-5.163,1.033-5.163,2.307c0,.808.932,1.516,2.339,1.928L64.2,392.614a22.544,22.544,0,0,0-9.023,3.438l-7.78-6.465c.665-1.307.789-2.472.2-3.026-.927-.873-3.264.1-5.22,2.176s-2.789,4.466-1.862,5.34c.617.581,1.862.33,3.2-.506l6.332,7.084a22.653,22.653,0,0,0-4.232,8.075L36.9,408.9c-.35-1.424-1.017-2.387-1.825-2.422-1.272-.056-2.4,2.208-2.53,5.057s.806,5.2,2.079,5.26c.847.037,1.625-.966,2.092-2.474l8.208,1.069a22.587,22.587,0,0,0,3.909,12.407l-5.061,5.663c-1.339-.836-2.583-1.087-3.2-.505-.928.873-.094,3.264,1.862,5.339s4.293,3.05,5.22,2.176c.588-.554.463-1.719-.2-3.025l5.8-4.822a22.6,22.6,0,0,0,11.137,4.865l.594,6.912c-1.527.4-2.563,1.134-2.563,1.982,0,1.275,2.312,2.307,5.163,2.307s5.164-1.032,5.164-2.307c0-.807-.933-1.516-2.34-1.928l.435-6.969A22.6,22.6,0,0,0,82,432.59l5.838,4.851c-.665,1.306-.789,2.471-.2,3.025.927.874,3.264-.1,5.22-2.176s2.789-4.466,1.862-5.339c-.617-.582-1.862-.331-3.2.505l-5.1-5.707A22.591,22.591,0,0,0,90.3,415.38l8.162-1.063c.467,1.508,1.245,2.511,2.093,2.474,1.273-.056,2.2-2.411,2.079-5.26S101.373,406.418,100.1,406.474Z" transform="translate(-116 44)" fill="#7da3f4"/>
      <path id="Path_9" data-name="Path 9" d="M447.192,417.248c-.59.026-1.078.73-1.334,1.772l-6.486-.122a16.572,16.572,0,0,0-3.11-5.927l4.613-5.161c.979.612,1.889.8,2.341.37.678-.64.068-2.388-1.363-3.906s-3.14-2.231-3.818-1.592c-.43.406-.339,1.258.147,2.213l-5.677,4.717a16.5,16.5,0,0,0-6.52-2.493l-.628-7.311c1.116-.294,1.874-.83,1.874-1.45,0-.932-1.691-1.688-3.777-1.688s-3.776.756-3.776,1.688c0,.59.682,1.109,1.711,1.41l-.459,7.342a16.5,16.5,0,0,0-6.6,2.514l-5.691-4.729c.487-.955.577-1.807.147-2.213-.678-.639-2.387.074-3.818,1.592s-2.04,3.266-1.362,3.906c.452.425,1.362.242,2.341-.37l4.631,5.182a16.551,16.551,0,0,0-3.1,5.906l-6.519.122c-.257-1.042-.744-1.746-1.335-1.772-.931-.041-1.76,1.615-1.851,3.7s.59,3.807,1.521,3.847c.62.028,1.189-.706,1.53-1.809l6,.782a16.526,16.526,0,0,0,2.859,9.075l-3.7,4.143c-.979-.612-1.889-.8-2.341-.37-.678.639-.068,2.388,1.363,3.906s3.14,2.23,3.818,1.591c.43-.4.339-1.257-.147-2.213l4.245-3.527a16.529,16.529,0,0,0,8.146,3.559l.434,5.056c-1.116.293-1.874.83-1.874,1.45,0,.932,1.691,1.687,3.777,1.687s3.777-.755,3.777-1.687c0-.591-.683-1.109-1.712-1.411l.319-5.1a16.536,16.536,0,0,0,8.161-3.578l4.27,3.548c-.486.956-.577,1.808-.147,2.213.678.639,2.388-.073,3.818-1.591s2.04-3.267,1.362-3.906c-.451-.426-1.362-.242-2.341.37l-3.731-4.175a16.526,16.526,0,0,0,2.835-9.047l5.97-.778c.342,1.1.911,1.837,1.531,1.809.931-.04,1.612-1.763,1.52-3.847S448.123,417.207,447.192,417.248Z" transform="translate(120 50)" fill="#7da3f4"/>
      <path id="Path_10" data-name="Path 10" d="M80.956,227.158c-.4.018-.737.5-.912,1.21l-4.431-.083a11.313,11.313,0,0,0-2.125-4.049l3.152-3.526c.669.418,1.29.543,1.6.253.463-.437.047-1.632-.931-2.669s-2.145-1.524-2.608-1.087c-.294.277-.232.859.1,1.512l-3.878,3.222a11.289,11.289,0,0,0-4.455-1.7l-.429-5c.763-.2,1.28-.567,1.28-.991,0-.637-1.155-1.153-2.58-1.153s-2.58.516-2.58,1.153c0,.4.466.758,1.169.964l-.313,5.016a11.263,11.263,0,0,0-4.509,1.717l-3.888-3.23c.332-.653.394-1.235.1-1.512-.463-.437-1.631.05-2.608,1.087s-1.394,2.232-.931,2.669c.309.29.93.165,1.6-.253l3.164,3.54a11.307,11.307,0,0,0-2.114,4.035l-4.454.083c-.175-.711-.508-1.192-.912-1.21-.636-.028-1.2,1.1-1.264,2.527s.4,2.6,1.038,2.629c.424.018.813-.483,1.046-1.236l4.1.534a11.288,11.288,0,0,0,1.953,6.2l-2.529,2.83c-.669-.418-1.291-.544-1.6-.253-.464.437-.047,1.632.93,2.669s2.146,1.524,2.609,1.087c.294-.277.232-.859-.1-1.512l2.9-2.41a11.276,11.276,0,0,0,5.565,2.431l.3,3.455c-.763.2-1.281.567-1.281.991,0,.636,1.155,1.152,2.58,1.152s2.581-.516,2.581-1.152c0-.4-.466-.758-1.17-.964l.218-3.483a11.291,11.291,0,0,0,5.576-2.444l2.917,2.424c-.332.653-.394,1.235-.1,1.512.464.437,1.632-.05,2.609-1.087s1.394-2.232.931-2.669c-.309-.291-.931-.165-1.6.253L74.12,237.79a11.29,11.29,0,0,0,1.937-6.181l4.079-.531c.233.753.622,1.254,1.045,1.236.637-.028,1.1-1.205,1.039-2.629S81.592,227.13,80.956,227.158Z" transform="translate(-28.612 -6.528)" fill="#7da3f4"/>
    </g>
    <g id="Group_9" data-name="Group 9" transform="translate(23)">
      <ellipse id="Ellipse_2" data-name="Ellipse 2" cx="94.574" cy="11.214" rx="94.574" ry="11.214" transform="translate(167.033 449.45)" fill="#b1c3eb"/>
      <path id="Path_11" data-name="Path 11" d="M384.535,173.348c-40.38-15.52-124.825-74.275-124.825-74.275S174.1,157.828,133.721,173.348c0,0-1.272,88.435,29.147,132.99,28.046,41.079,92.393,85.939,96.26,85.939,5.755,0,68.214-44.86,96.26-85.939C385.807,261.783,384.535,173.348,384.535,173.348Z" fill="#eaebff" stroke="#00354c" stroke-miterlimit="10" stroke-width="1"/>
      <path id="Path_12" data-name="Path 12" d="M366.071,183.986c-34.435-13.235-106.447-63.339-106.447-63.339s-73,50.1-107.439,63.339c0,0-1.084,75.415,24.855,113.409,23.917,35.031,78.79,73.287,82.088,73.287,4.908,0,58.171-38.256,82.088-73.287C367.155,259.4,366.071,183.986,366.071,183.986Z" fill="#abc1f0"/>
      <g id="Group_8" data-name="Group 8">
        <g id="Group_5" data-name="Group 5">
          <path id="Path_13" data-name="Path 13" d="M207.131,175.489s-7.358,2.833-12.838,17.668-20.8,66.163-20.8,66.163l20.8,11.524s10.931-22.912,12.52-42.311S207.131,175.489,207.131,175.489Z" fill="#efb19e"/>
          <path id="Path_14" data-name="Path 14" d="M137.27,234.048l41.369,18.641s7.307,1.36,11.914,9.915,3.74,8.24,3.74,8.24-7.748,10.657-16.189,8.289-46.662-30.871-46.662-30.871Z" fill="#ffccb8"/>
          <path id="Path_15" data-name="Path 15" d="M207.131,175.489,227.747,165.3H249.94l29.993,10.752s14.431,50.932-15.279,87.716c0,0,10.728,39.13,11.638,57.227,0,0-27.919,5.827-48.324,4.962s-33.295-2.418-33.295-2.418l5.467-79.321s-4.447-8.184-5.76-23.037S207.131,175.489,207.131,175.489Z" fill="#4a79de"/>
          <path id="Path_16" data-name="Path 16" d="M274.32,173.007s-7.383,2.348-13.121,14.868-21.062,57.9-21.062,57.9l-47.6-11.1-4.96,15.942s37.886,21.022,57.355,17.658c26.37-4.556,39.482-55.358,41.047-71.663A24.758,24.758,0,0,0,274.32,173.007Z" fill="#ffccb8"/>
          <path id="Path_17" data-name="Path 17" d="M194.673,236.3s-2.01-8.04-5.653-11.684-6.407-2.261-8.04,0c0,0-6.282-2.943-9.3-1.157s-1.507,5.877-1.507,5.877-2.01,1.939-1,5.833a15.089,15.089,0,0,0,.753,5.779c1.005,2.513,1.885,3.141,1.885,3.141s-.251,1.759,3.266,4.146,12.83,2.823,12.83,2.823Z" fill="#ffccb8"/>
          <path id="Path_18" data-name="Path 18" d="M270.786,191.122l-1.426,5.173,12.077,3.494.951-5.016Z" fill="#fff"/>
          <path id="Path_19" data-name="Path 19" d="M280.88,189.964l-5.191-1.357-3.62,13.17,5.171,1.415,1.465-5.322.867-3.148Z" fill="#fff"/>
          <path id="Path_20" data-name="Path 20" d="M131.442,248.262s-9.229-10.08-11.131-15.595.191-10.651,2-12.268,4.184,0,4.184,0a7.463,7.463,0,0,1,3.423-.718,2.977,2.977,0,0,1,2.853,2.24s2.092-1.332,3.519-.666a5.5,5.5,0,0,1,2.187,2.758s1.426-1.237,3.9.38,2.853,5.135,2.568,6.562-.951,1.712-.951,1.712,2.567,0,3.518,5.42-3.614,10.175-3.614,10.175S141.527,252.922,131.442,248.262Z" fill="#ffccb8"/>
          <path id="Path_21" data-name="Path 21" d="M125.447,221.16a5.834,5.834,0,0,1,4.945-3.329c3.9-.475,8.463,1.617,8.558,3.329s-2.567,2.758-2.567,2.758Z" fill="#ffccb8"/>
          <path id="Path_22" data-name="Path 22" d="M207.131,175.489s-3.732,3.119-7.975,6.345c-5.684,4.321-10.725,24.83-10.725,24.83l6.935,3.223S205.638,176.97,207.131,175.489Z" fill="#3463c7"/>
          <path id="Path_23" data-name="Path 23" d="M258.736,193.733s3.65-9.27,12.813-11.8c14.412-3.983,14.338,15.552,14.338,15.552s3.8-16.035-4.478-21.188c-3.9-2.431-9.432-1.828-13.379,1.211S259.187,190.109,258.736,193.733Z" fill="#5668d1"/>
          <path id="Path_24" data-name="Path 24" d="M221.511,168.384s.639,8.233,14.681,8.362a38.764,38.764,0,0,0,23.555-7.928l-9.9-4.053H228.14Z" fill="#ffccb8"/>
          <path id="Path_25" data-name="Path 25" d="M248.879,94.458s-5.942-7-17.508-6.049-32.045,14.431-32.257,29.074a18.8,18.8,0,0,0,12.309,18.569Z" fill="#00486e"/>
          <path id="Path_26" data-name="Path 26" d="M244.28,167.629l-16.534-.149.394-4.506.808-9.182,18.1,1.043-.811,3.745Z" fill="#ffccb8"/>
          <path id="Path_27" data-name="Path 27" d="M246.24,158.581c-4.672,2.1-12.894,5.291-18.1,4.394l.808-9.183,19.563-6.891Z" fill="#c68e75"/>
          <path id="Path_28" data-name="Path 28" d="M207.146,135.055s-.687,14.537,7.224,22.088,26,4.355,31.589-4.345,8.121-34.117,8.121-34.117-16.707-13.471-27.767-13.648S207.539,119.908,207.146,135.055Z" fill="#ffccb8"/>
          <path id="Path_29" data-name="Path 29" d="M249.77,132.4s3.7-3.729,7.753-1.543,2.11,10.187-2.2,14.21-9.874,1.509-9.874,1.509Z" fill="#ffccb8"/>
          <path id="Path_30" data-name="Path 30" d="M217.761,125.072l-2.661,10.11s-2.619-2.087-3.7-.665,2.2,4.505,5.232,4.478,3.306-12.525,2.806-14.427S218.135,123.65,217.761,125.072Z" fill="#ce7d5d"/>
          <path id="Path_31" data-name="Path 31" d="M209.465,117.893a4.6,4.6,0,0,1,3.568-3.231c3.011-.68,5.141,3.522,4.071,4.111s-1.759-1.013-3.674-1.044a3.982,3.982,0,0,0-3.073,1.754S209.209,119.707,209.465,117.893Z" fill="#00354c"/>
          <path id="Path_32" data-name="Path 32" d="M228.606,118.171a4.6,4.6,0,0,1,4.218-2.319c3.087.035,4.188,4.615,3.011,4.94s-1.477-1.392-3.334-1.864a3.7,3.7,0,0,0-2.979.346S227.938,119.877,228.606,118.171Z" fill="#00354c"/>
          <path id="Path_33" data-name="Path 33" d="M231.378,126.388c-.026,1.631-.731,2.943-1.575,2.929s-1.507-1.347-1.481-2.978.732-2.943,1.576-2.93S231.4,124.756,231.378,126.388Z" fill="#00354c"/>
          <path id="Path_34" data-name="Path 34" d="M214.915,126.125c-.022,1.4-.628,2.529-1.353,2.517s-1.295-1.157-1.272-2.559.628-2.528,1.353-2.517S214.937,124.723,214.915,126.125Z" fill="#00354c"/>
          <path id="Path_35" data-name="Path 35" d="M250.136,132.288c-5.157-.131-9.639,2.241-12.5,3.679-3.618-1.538-14.874-6.066-20.871-5.532-7.208.643-9.513,2.412-9.513,2.412-2.867,18.05,8.6,25.51,8.6,25.51s8.759,2.435,15.812-2.756c5.134-3.779,6.567-12.187,6.968-16.486l10.34-4.312Z" fill="#fff"/>
          <path id="Path_36" data-name="Path 36" d="M284.209,171.915c-3.39,10.3-11.56,10.19-15.591,6.159s-7.322-4.563-12.309-2.444-11.146-1.064-12.03-8,4.23-20.732,4.23-20.732a8.912,8.912,0,0,0,3.291-.333,11.416,11.416,0,0,0,7.755-9.27c1.019-6.187-4.734-7.115-6.952-6.682-1.1.216-1.957,1.415-2.552,2.6a14.843,14.843,0,0,0-.956,2.416,11.515,11.515,0,0,1-5.42-5.239c-2.227-4.067-3.778-10.893-3.778-10.893a22.1,22.1,0,0,1-10.9-4.274,11.593,11.593,0,0,1-5.1-9.911c.009-.18.018-.279.018-.279,2.822-3.887,12.065-9.487,20.7-11.083,3.923-.73,7.719-.631,10.74.83,9.658,4.662,14.113,15.916,14.113,26.052s5.41,15.537,10.929,22.652S287.609,161.626,284.209,171.915Z" fill="#00486e"/>
          <path id="Path_37" data-name="Path 37" d="M230.9,152.687c-3.7,3.386-9.833,5-16.256,4.259a21.735,21.735,0,0,1-5.123-6.532,26.655,26.655,0,0,1-2.569-14.99c1.606-.843,4.664-1.971,9.833-2.2,8.456-.376,17.892,5.1,17.892,5.1S235.589,148.382,230.9,152.687Z" fill="#c1e6ff"/>
          <path id="Path_38" data-name="Path 38" d="M230.9,152.687c-3.7,3.386-9.833,5-16.256,4.259a21.735,21.735,0,0,1-5.123-6.532c3.242,1.46,8.961,3.085,14.834.12,8.946-4.515,10.322-12.205,10.322-12.205S235.589,148.382,230.9,152.687Z" fill="#a7d2ea"/>
          <path id="Path_39" data-name="Path 39" d="M281.811,165.3c-1.29,6.294-7.341,12.634-11.462,7.7s-8.891-2.534-12.372-2.254-7.214-3.634-8.5-11.822c-1.064-6.808.883-9.983,2.326-12.363a11.416,11.416,0,0,0,7.755-9.27c1.019-6.187-4.734-7.115-6.952-6.682-1.1.216-1.957,1.415-2.552,2.6-4.455-3.517-6.754-16.169-6.754-16.169a33.521,33.521,0,0,1-9.28-3.895,21.115,21.115,0,0,1-7.7-8.116,14.793,14.793,0,0,0-2.425.279c-12.823,2.624-15.979,22.373-15.979,22.373s-9.063-14.924,7.5-27.81c14.131-10.993,26.025-7.25,29.2-5.925.55.235.839.388.839.388s-5.636,4.509-2.029,4.734,7.088-3.445,10.659-2.29,9.179,7.989,9.441,15.979,2.57,17.521,11.723,30.786S283.1,159,281.811,165.3Z" fill="#00354c"/>
          <line id="Line_1" data-name="Line 1" x1="7.597" y1="7.858" transform="translate(241.078 247.476)" fill="none" stroke="#00354c" stroke-linecap="round" stroke-linejoin="round" stroke-width="1"/>
          <path id="Path_40" data-name="Path 40" d="M285.887,197.483s.949-15.16-8.584-16.065-16.1,6.457-18.567,12.315-18.6,52.046-18.6,52.046l-45.844-10.69s-1.853-8.645-5.862-11.543-7.451,1.067-7.451,1.067-5.624-3.343-8.949-1.335-1.855,6.055-1.855,6.055a7.245,7.245,0,0,0-.7,6.9,10.6,10.6,0,0,0,.193,3.982,7.55,7.55,0,0,0,2.137,3.869s-.686,1.686,2.968,3.938,12.8,3.031,12.8,3.031" fill="none" stroke="#00354c" stroke-linecap="round" stroke-linejoin="round" stroke-width="1"/>
          <line id="Line_2" data-name="Line 2" x1="2.648" y2="8.998" transform="translate(187.905 242.057)" fill="none" stroke="#00354c" stroke-linecap="round" stroke-linejoin="round" stroke-width="1"/>
          <path id="Path_41" data-name="Path 41" d="M187.9,251.055s39.438,21.984,57.526,16.754,25.558-21.478,29.314-30.931,10.6-30.338,10.768-36.585" fill="none" stroke="#00354c" stroke-linecap="round" stroke-linejoin="round" stroke-width="1"/>
          <path id="Path_42" data-name="Path 42" d="M220.364,170.756s2.1,7.316,14.38,8.217" fill="none" stroke="#00354c" stroke-linecap="round" stroke-linejoin="round" stroke-width="1"/>
          <path id="Path_43" data-name="Path 43" d="M248.511,176.747a18.891,18.891,0,0,1-7.882,1.711" fill="none" stroke="#00354c" stroke-linecap="round" stroke-linejoin="round" stroke-width="1"/>
          <path id="Path_44" data-name="Path 44" d="M207.253,132.847s-3.984,17.614,8.6,25.51,29.024-.661,31.193-7.542" fill="none" stroke="#00354c" stroke-linecap="round" stroke-linejoin="round" stroke-width="1"/>
          <line id="Line_3" data-name="Line 3" x1="3.078" y2="2.78" transform="translate(258.529 266.057)" fill="none" stroke="#00354c" stroke-linecap="round" stroke-linejoin="round" stroke-width="1"/>
          <path id="Path_45" data-name="Path 45" d="M199.753,257.522l-5.08,66.02a152.013,152.013,0,0,0,39.885,2.506A414.569,414.569,0,0,0,276.292,321" fill="none" stroke="#00354c" stroke-linecap="round" stroke-linejoin="round" stroke-width="1"/>
          <path id="Path_46" data-name="Path 46" d="M176.8,251.86s10.958.478,14.54,14.2" fill="none" stroke="#00354c" stroke-linecap="round" stroke-linejoin="round" stroke-width="1"/>
          <path id="Path_47" data-name="Path 47" d="M199.643,258.959s-5.47,22.1-19.6,20.517c-9.4-1.052-45.577-27.73-48.6-31.214s-10.072-10.36-11.508-16.91,1.315-10.525,2.934-11.34a3.5,3.5,0,0,1,3.179.138s.426-1.978,4.345-2.319,7.922,1.85,8.561,2.688-.617,2.1-.617,2.1" fill="none" stroke="#00354c" stroke-linecap="round" stroke-linejoin="round" stroke-width="1"/>
          <path id="Path_48" data-name="Path 48" d="M124.294,227.314s.387-6.862,4.251-7.634,4.224,2.241,4.224,2.241" fill="none" stroke="#00354c" stroke-linecap="round" stroke-linejoin="round" stroke-width="1"/>
          <path id="Path_49" data-name="Path 49" d="M130.526,228.667s.175-5.892,3.527-7.1,4.9,2.85,4.9,2.85" fill="none" stroke="#00354c" stroke-linecap="round" stroke-linejoin="round" stroke-width="1"/>
          <path id="Path_50" data-name="Path 50" d="M136.468,229.826s.966-5.826,4.638-5.908,4.206,5.177,3.836,7.037-1.518,1.769-1.518,1.769" fill="none" stroke="#00354c" stroke-linecap="round" stroke-linejoin="round" stroke-width="1"/>
          <path id="Path_51" data-name="Path 51" d="M140.236,232.725s1.978-.967,4.805.965,3.021,6.764,3.021,6.764" fill="none" stroke="#00354c" stroke-linecap="round" stroke-linejoin="round" stroke-width="1"/>
          <line id="Line_4" data-name="Line 4" x2="28.736" y2="13.523" transform="translate(148.062 238.911)" fill="none" stroke="#00354c" stroke-linecap="round" stroke-linejoin="round" stroke-width="1"/>
          <line id="Line_5" data-name="Line 5" y1="15.183" x2="4.8" transform="translate(184.755 207.187)" fill="none" stroke="#00354c" stroke-linecap="round" stroke-linejoin="round" stroke-width="1"/>
          <path id="Path_52" data-name="Path 52" d="M195.366,209.887l-6.935-3.223s4.92-26,18.7-31.175c0,0-10.6,28.476-12.458,37.622s2.271,22.485,2.271,22.485" fill="none" stroke="#00354c" stroke-linecap="round" stroke-linejoin="round" stroke-width="1"/>
          <path id="Path_53" data-name="Path 53" d="M208.395,174.865l13.116-6.481,6.63-3.619.181-3.247" fill="none" stroke="#00354c" stroke-linecap="round" stroke-linejoin="round" stroke-width="1"/>
        </g>
        <g id="Group_6" data-name="Group 6">
          <path id="Path_54" data-name="Path 54" d="M390.974,266.719c-.986-.778-4.2-.7-5.07-.661l.088-.5c3.907.371,5.852-.456,4.857-1.24-.879-.692-3.723-.628-4.533-.594h0c-.137,0-.222.01-.222.01l0,.007-4.056.324.312-.88s4.109-1.419,2.992-2.243-3.317-.521-4.851.19-3.377,3.394-3.377,3.394l-1.45-.277L342.928,254.4l-6.96-17.221-11.946,2.933s3.759,15.614,10.295,22.584c5.707,6.084,32.9,8.859,39.713,9.466h.006c.989.088,1.552.13,1.552.13v-.006l2.045.164c4.789,1.547,7.014.711,7.014.711l0-.021c3.841.309,5.72-.529,4.714-1.322-.813-.641-3.25-.658-4.369-.629l.066-.372c4.253.379,6.356-.531,5.261-1.394-.928-.732-3.831-.7-4.9-.668l.116-.658C389.909,268.516,392.084,267.593,390.974,266.719Z" fill="#ffb592"/>
          <path id="Path_55" data-name="Path 55" d="M270.327,354.875l-12.314,12.557-6.531,4.8,14.012,13.761,1.487-10.7L278.359,367Z" fill="#ffb592" stroke="#00354c" stroke-miterlimit="10" stroke-width="1"/>
          <path id="Path_56" data-name="Path 56" d="M254.516,369.848a40.628,40.628,0,0,0-7.645,6.553c-2.724,3.325,4.724,8.67,10.406,12.207s8.478,7.559,14.6,8.7-2.839-12.94-6.188-17.142c0,0,.031.709-5.305-1.748S254.516,369.848,254.516,369.848Z" fill="#3f3e3e" stroke="#00354c" stroke-linecap="round" stroke-linejoin="round" stroke-width="1"/>
          <path id="Path_57" data-name="Path 57" d="M333.173,290.518s-13.243,50.316-28.149,61.08-32.953,22.511-32.953,22.511l-12.943-12.68,27.592-27.64s.137-32.608,8.734-48.562S333.173,290.518,333.173,290.518Z" fill="#6aaa84"/>
          <path id="Path_58" data-name="Path 58" d="M333.093,285.185l.082,5.329-48.524-9.567,10.46-21.246s-2.443-25.384,5.7-35.439,21.065-8.738,21.065-8.738,9.567.956,13.264,14.626-2.425,30.462-2.425,30.462l.279,18.3Z" fill="#a6e8c4"/>
          <path id="Path_59" data-name="Path 59" d="M324.792,215.263l-.36,1.687-.767,3.625c-4,1.74-9.658-1.975-9.658-1.975l1.669-9.892Z" fill="#ffb592"/>
          <path id="Path_60" data-name="Path 60" d="M333.093,285.185c-5.356-.9-19.288-4-27.188-12.814a43.679,43.679,0,0,1-10.469-24.862c-.216-1.659,1.127-10.631,1.127-10.631s7.882,15.212,13.2,26.214c4.5,9.306,18.91,14.464,23.229,15.825Z" fill="#8bc9a6"/>
          <path id="Path_61" data-name="Path 61" d="M324.792,215.263l-.544,2.641a16.986,16.986,0,0,1-3.691-.785c-2.375-.748-4.972-3.1-5.307-5.9l.426-2.512Z" fill="#c68e75"/>
          <path id="Path_62" data-name="Path 62" d="M336.749,202.669s.35,7.406-3.681,11.253-13.244,2.219-16.094-2.214-4.138-17.382-4.138-17.382,8.789-5.622,14.424-5.712S336.549,194.951,336.749,202.669Z" fill="#ffb592"/>
          <path id="Path_63" data-name="Path 63" d="M315.033,201.317s-1.884-1.9-3.951-.787-1.075,5.19,1.12,7.24a4.823,4.823,0,0,0,5.03.769Z" fill="#ffb592"/>
          <path id="Path_64" data-name="Path 64" d="M331.341,197.582l1.356,5.151s1.334-1.063,1.886-.338-1.122,2.295-2.666,2.281-1.685-6.381-1.43-7.35S331.15,196.858,331.341,197.582Z" fill="#ce7d5d"/>
          <path id="Path_65" data-name="Path 65" d="M335.567,193.925a2.34,2.34,0,0,0-1.818-1.646c-1.534-.347-2.619,1.794-2.074,2.094s.9-.516,1.872-.532a2.033,2.033,0,0,1,1.566.894S335.7,194.849,335.567,193.925Z" fill="#00354c"/>
          <path id="Path_66" data-name="Path 66" d="M325.815,194.066a2.341,2.341,0,0,0-2.149-1.181c-1.572.018-2.134,2.351-1.534,2.517s.753-.709,1.7-.95a1.884,1.884,0,0,1,1.518.176S326.156,194.936,325.815,194.066Z" fill="#00354c"/>
          <path id="Path_67" data-name="Path 67" d="M324.4,198.253c.013.831.372,1.5.8,1.492s.768-.686.755-1.517-.373-1.5-.8-1.493S324.389,197.421,324.4,198.253Z" fill="#00354c"/>
          <path id="Path_68" data-name="Path 68" d="M332.791,198.119c.011.714.32,1.288.689,1.282s.66-.589.648-1.3-.32-1.288-.689-1.282S332.779,197.4,332.791,198.119Z" fill="#00354c"/>
          <path id="Path_69" data-name="Path 69" d="M319.878,190.608s1.051,4.574.085,7.229a6.884,6.884,0,0,1-3.124,3.691s.663,2.6-.27,3.492l-2.891-4.579a2.824,2.824,0,0,0-3.458,1.019c-1.238,1.959,1.641,7.355,5.454,7.244l-.52,3.087a16.134,16.134,0,0,1-9.348-8.617,12.15,12.15,0,0,1,.646-11.632s-.438-5.5,6.021-8.343,16.021-.587,16.021-.587,4.464-2.378,7.779-.336c4.945,3.044,3.3,9.439-.3,9.891a11.473,11.473,0,0,1-6.36-1.049s.15,1.9-2.049,1.566a4.107,4.107,0,0,1-3.028-2.162S323.592,194.2,319.878,190.608Z" fill="#00486e"/>
          <path id="Path_70" data-name="Path 70" d="M310.167,189.3s1.059-6.908-2.986-8.238-7.667,1.67-8.62,7.739,2.565,7.423,6.16,6.815S310.167,189.3,310.167,189.3Z" fill="#00486e"/>
          <path id="Path_71" data-name="Path 71" d="M313.19,375.629l-3.475,17.241-2.858,7.585,19.25,3.895-4.59-9.784,5.019-13.15Z" fill="#ffb592"/>
          <path id="Path_72" data-name="Path 72" d="M318.074,287.623l-33.427-6.681s-7.759,21.324,7.874,39.45c7.357,8.531,20.042,13.777,31.41,16.942A52.583,52.583,0,0,0,316.241,350a86.188,86.188,0,0,0-6.563,27.326l21.469,7.646,19.6-48.113a18.1,18.1,0,0,0-3.769-19.43Z" fill="#8bc9a6"/>
          <path id="Path_73" data-name="Path 73" d="M309.121,225.115,316,249.1l-15.855,3.893s-4.676-10.3-2.859-21.786S306.464,219.9,309.121,225.115Z" fill="#8bc9a6" stroke="#00354c" stroke-miterlimit="10" stroke-width="0.75"/>
          <path id="Path_74" data-name="Path 74" d="M408.814,358.9a10.477,10.477,0,0,1-10.8,10.6l-52.1-1.614a10.484,10.484,0,0,1-10.117-11.38l2.885-33.221,3.535-40.769,1.218-13.995a12.93,12.93,0,0,1,13.21-11.813l2.264-10.415,35.222,1.623,1.732,10.74a12.941,12.941,0,0,1,11.912,12.742l.144,12.092.487,40.931Z" fill="#fff" stroke="#00354c" stroke-miterlimit="10" stroke-width="1"/>
          <path id="Path_75" data-name="Path 75" d="M408.42,325.445c-6.808,1.469-21.528,3.213-36.136,3.2a114.142,114.142,0,0,1-33.6-5.347l3.535-40.769c7.782.983,19.009,2.219,31.183,2.976a142.267,142.267,0,0,0,34.519-2Z" fill="#4a79de" stroke="#00354c" stroke-miterlimit="10" stroke-width="1"/>
          <path id="Path_76" data-name="Path 76" d="M308.1,396.8a40.642,40.642,0,0,0-2.836,9.662c-.47,4.273,8.688,4.692,15.38,4.559s11.228,1.712,16.981-.666-9.435-9.3-14.533-10.995c0,0,.412.577-5.4,1.427S308.1,396.8,308.1,396.8Z" fill="#3f3e3e" stroke="#00354c" stroke-linecap="round" stroke-linejoin="round" stroke-width="1"/>
          <path id="Path_77" data-name="Path 77" d="M351.83,242.812l.011.283a5.947,5.947,0,0,0,5.774,5.712l38.516,1.1a5.947,5.947,0,0,0,6.05-5.055h0a5.947,5.947,0,0,0-5.668-6.834l-38.527-1.38A5.947,5.947,0,0,0,351.83,242.812Z" fill="#4a79de" stroke="#00354c" stroke-miterlimit="10" stroke-width="1"/>
          <path id="Path_78" data-name="Path 78" d="M369.662,278.833c-.987-.778-4.2-.7-5.071-.661l.088-.5c3.908.371,5.852-.456,4.858-1.24-.879-.693-3.724-.628-4.534-.6h0l-.222.011,0,.007-4.056.323.313-.879s4.109-1.42,2.992-2.243-3.318-.521-4.851.19-3.378,3.394-3.378,3.394l-1.449-.277-32.734-9.852-6.823-16.881-12.016,2.859s3.692,15.348,10.229,22.317c5.706,6.085,32.895,8.86,39.713,9.467h.005c.989.088,1.552.13,1.552.13V284.4l2.044.164c4.789,1.547,7.015.711,7.015.711l0-.021c3.84.309,5.72-.529,4.714-1.322-.814-.641-3.251-.658-4.369-.63l.065-.371c4.253.379,6.356-.532,5.261-1.395-.928-.731-3.831-.7-4.9-.667l.116-.658C368.6,280.63,370.771,279.707,369.662,278.833Z" fill="#ffb592" stroke="#00354c" stroke-linecap="round" stroke-linejoin="round" stroke-width="1"/>
          <path id="Path_79" data-name="Path 79" d="M314.306,201.254a15.9,15.9,0,0,1,6.908,1.879c1.843-.784,7.578-3.091,10.633-2.818,3.673.327,4.847,1.229,4.847,1.229,1.461,9.2-4.384,13-4.384,13a10.19,10.19,0,0,1-8.056-1.4c-2.615-1.925-3.346-6.208-3.55-8.4l-5.68-2.222Z" fill="#fff"/>
          <path id="Path_80" data-name="Path 80" d="M297.213,231.672s-3.1,9.007-2.105,28.029c0,0-6.945,13.91-10.461,21.241l48.526,9.576" fill="none" stroke="#00354c" stroke-linecap="round" stroke-linejoin="round" stroke-width="1"/>
          <path id="Path_81" data-name="Path 81" d="M313.591,217.6s3.454,3.1,7.367,3.435,4.444-2.517,4.444-2.517" fill="none" stroke="#00354c" stroke-linecap="round" stroke-linejoin="round" stroke-width="1"/>
          <path id="Path_82" data-name="Path 82" d="M324.7,211.49a10.388,10.388,0,0,0,8.248,2.225,11.3,11.3,0,0,0,2.6-3.412,14.277,14.277,0,0,0,1.3-7.828,11.559,11.559,0,0,0-4.989-1.148c-4.291-.2-9.078,2.665-9.078,2.665S322.318,209.242,324.7,211.49Z" fill="#c1e6ff"/>
          <path id="Path_83" data-name="Path 83" d="M324.7,211.49a10.388,10.388,0,0,0,8.248,2.225,11.3,11.3,0,0,0,2.6-3.412,8.438,8.438,0,0,1-7.526.063,9.759,9.759,0,0,1-5.237-6.374S322.318,209.242,324.7,211.49Z" fill="#a7d2ea"/>
          <path id="Path_84" data-name="Path 84" d="M335.113,194.735s3.607,9.21.434,15.854-17.315,7.75-19.873-1.885l-1.56,8.771" fill="none" stroke="#00354c" stroke-linecap="round" stroke-linejoin="round" stroke-width="1"/>
          <line id="Line_6" data-name="Line 6" x1="1.131" y2="4.625" transform="translate(323.665 215.95)" fill="none" stroke="#00354c" stroke-linecap="round" stroke-linejoin="round" stroke-width="1"/>
          <path id="Path_85" data-name="Path 85" d="M317.232,201.3s4.641-2.662,2.646-10.689c0,0,1.648,1.739,3.03,1.558a2.022,2.022,0,0,0,1.627-1.644s1.755,2.365,3.268,2.187a2.11,2.11,0,0,0,1.809-1.591s4.18,2.122,6.821,1.253,4.624-6.19.766-9.423-8.705-.336-8.705-.336-6.522-1.678-12.19-.517-8.5,3.888-9.468,6.518-.58,3.887-.58,3.887-1.994,1.926-1.192,7.407c1.289,8.8,9.995,11.643,9.995,11.643" fill="none" stroke="#00354c" stroke-linecap="round" stroke-linejoin="round" stroke-width="1"/>
          <path id="Path_86" data-name="Path 86" d="M303.5,221.467s5.359-4.472,10.8-5.383" fill="none" stroke="#00354c" stroke-linecap="round" stroke-linejoin="round" stroke-width="1"/>
          <path id="Path_87" data-name="Path 87" d="M329.128,219.335s7.688,8.881,7.16,18.635-3.567,23.171-3.567,23.171v8.714" fill="none" stroke="#00354c" stroke-linecap="round" stroke-linejoin="round" stroke-width="1"/>
          <line id="Line_7" data-name="Line 7" x1="2.618" y2="2.348" transform="translate(317.403 268.218)" fill="none" stroke="#00354c" stroke-linecap="round" stroke-linejoin="round" stroke-width="1"/>
          <path id="Path_88" data-name="Path 88" d="M332.721,261.141a19.732,19.732,0,0,0,10.906,6.023" fill="none" stroke="#00354c" stroke-linecap="round" stroke-linejoin="round" stroke-width="1"/>
          <line id="Line_8" data-name="Line 8" y1="3.027" x2="3.559" transform="translate(339.369 254.399)" fill="none" stroke="#00354c" stroke-linecap="round" stroke-linejoin="round" stroke-width="1"/>
          <path id="Path_89" data-name="Path 89" d="M284.647,280.942s-8.082,24.737,7.874,39.45,32.543,16.942,32.543,16.942" fill="none" stroke="#00354c" stroke-linecap="round" stroke-linejoin="round" stroke-width="1"/>
          <path id="Path_90" data-name="Path 90" d="M330.893,332.958a31.907,31.907,0,0,0-13.49,15.021c-4.582,10.394-7.725,29.349-7.725,29.349l21.469,7.646,7.879-19.343" fill="none" stroke="#00354c" stroke-linecap="round" stroke-linejoin="round" stroke-width="1"/>
          <path id="Path_91" data-name="Path 91" d="M307.415,193.208s.258,1.031,1.611,0a1.955,1.955,0,0,0,.483-2.931,2.888,2.888,0,0,0-1.611-.193s1.675-4.541,7.73-5.8a36.914,36.914,0,0,1,12.592,0,9.313,9.313,0,0,1,4.992-1.256c2.576.226,4.96,1.836,4.638,4.895s-3.962,3.06-5.83,2.287-2.769-1.449-3.091-.966.451,2.093-1.095,1.9-2.641-2.351-3.414-2.351-.676,1.868-1.61,1.707-1.031-1.675-3.221-1.385-1.707,1.514-1.127,3.607a11.142,11.142,0,0,1-.644,6.312c-.516.9-3.7,2.1-3.7,2.1l-.436-.691s-2.262-.9-3.361.877,1.349,7.012,4.763,7.39l-.966,1.408s-5.282-2.749-6.409-7.767S306.964,194.69,307.415,193.208Z" fill="#00354c"/>
          <path id="Path_92" data-name="Path 92" d="M304.653,194.154s-3.518.439-3.969-4.166,2.287-7.44,4.67-7.6,3.606,3.125,3.606,3.125-2.382,2.769-2.8,4.83-.2,2.543-.2,2.543S305.822,194.266,304.653,194.154Z" fill="#00354c"/>
          <path id="Path_93" data-name="Path 93" d="M301.651,224.448s-1.933,8.76,0,16.3,7.259,9.709,7.259,9.709l-8.544,2.161s-4.072-13-3.07-18.826c0,0,.627-5.764,2.256-8.646a5.905,5.905,0,0,1,4.291-3.1A4.575,4.575,0,0,0,301.651,224.448Z" fill="#6aaa84"/>
          <path id="Path_94" data-name="Path 94" d="M319.5,247.12h14.747s-.484,2.414-6.184,2.512S319.5,247.12,319.5,247.12Z" fill="#8bc9a6"/>
          <line id="Line_9" data-name="Line 9" x2="21.118" y2="22.394" transform="translate(318.712 287.664)" fill="none" stroke="#00354c" stroke-linecap="round" stroke-linejoin="round" stroke-width="1"/>
          <path id="Path_95" data-name="Path 95" d="M327.383,203.546s2.657-1.3,7.246-.58" fill="none" stroke="#00354c" stroke-linecap="round" stroke-linejoin="round" stroke-width="1"/>
          <path id="Path_96" data-name="Path 96" d="M287.886,315.281l-1.166,18.507,9.431,6.548" fill="none" stroke="#00354c" stroke-miterlimit="10" stroke-width="1"/>
          <path id="Path_97" data-name="Path 97" d="M259.128,361.429l12.943,12.68s27.5-16.292,34.786-24.04a51.169,51.169,0,0,0,10.018-14.8" fill="none" stroke="#00354c" stroke-miterlimit="10" stroke-width="1"/>
          <path id="Path_98" data-name="Path 98" d="M313,378.51l-3.282,14.359L308.1,396.8a8.943,8.943,0,0,0,7.426,4.051c5.382.275,8.373-1.208,8.373-1.208l-2.174-5.627,4.012-10.512" fill="none" stroke="#00354c" stroke-linecap="round" stroke-linejoin="round" stroke-width="1"/>
          <path id="Path_99" data-name="Path 99" d="M342.165,329.824s-4.444,22.342,0,29.142,49.468,6.8,56.231,4.288-1.959-6.421-24.844-6.882-26.6-1.626-27.062-9.063S346.833,322.694,342.165,329.824Z" fill="#ececec"/>
          <path id="Path_100" data-name="Path 100" d="M362.464,255.9a4.691,4.691,0,0,0,4.113,5.6c6.6.681,17.909,2.1,23.961,4.291,8.889,3.221,8.889,14.686,10.048,15.974s4.509.914,4.895-.831-.644-10.891-4.38-15.915a14.351,14.351,0,0,0-6.283-4.863,4.769,4.769,0,0,1-2.931-3.765l-.036-.243a4.7,4.7,0,0,0-4.644-4.012H367.065a4.7,4.7,0,0,0-4.6,3.761Z" fill="#ececec"/>
          <path id="Path_101" data-name="Path 101" d="M355.176,242.611s.773,3.607,9.855,4.574,29.243,2.061,32.012,0-11.271-1.868-20.611-2.641a121.478,121.478,0,0,1-18.791-3.221C356.271,241,354.919,240.486,355.176,242.611Z" fill="#5668d1"/>
          <path id="Path_102" data-name="Path 102" d="M352.085,287.665s-3.315,20.131,5.556,26.894,47.155,3.464,47.916,6.273-18.175,7.622-39.624,5.216-22.435-6.335-23.005-7.849.783-32.772,2.522-32.7S350.8,285.7,352.085,287.665Z" fill="#7da3f4"/>
        </g>
        <g id="Group_7" data-name="Group 7">
          <path id="Path_103" data-name="Path 103" d="M144.354,320.635l-40.075-4.241.954,2.12,37.424,5.407Z" fill="#fff" stroke="#00354c" stroke-miterlimit="10" stroke-width="1"/>
          <path id="Path_104" data-name="Path 104" d="M184.21,348.863l-4.432.567s-5.587.6-8.145-.132-2.652-2.613-2.652-2.613a4.944,4.944,0,0,1-1.661-1.907,2.633,2.633,0,0,1-.283-1.885l-.029-1.638,15.619,2.676Z" fill="#ffb592" stroke="#00354c" stroke-miterlimit="10" stroke-width="1"/>
          <path id="Path_105" data-name="Path 105" d="M217.226,452.918s-23.815,8.161-19.567,12.023c1.3,1.179,34.079.031,34.079.031,1.941-2.353-1.9-12.054-1.9-12.054Z" fill="#3f3e3e" stroke="#00354c" stroke-miterlimit="10" stroke-width="1"/>
          <path id="Path_106" data-name="Path 106" d="M327.876,431.82l-14.1,12.8-5.33,4.834s-35.8-18.784-45.25-42.861a133.07,133.07,0,0,1-6.952-27.323,225.446,225.446,0,0,1-2.624-30.4s50.642-28.559,54.962-17.8a33.221,33.221,0,0,1,2.182,9.27,52.706,52.706,0,0,1-.893,14.933c-3.706,19.523-15.636,37.973-15.636,37.973Z" fill="#2956b7"/>
          <path id="Path_107" data-name="Path 107" d="M227.574,347.4c-7,14.419-37.748,18.233-37.748,18.233l-1.866-5.518-6.61-19.505,29.686-9.965,10.6-28.91,5.808-15.862,1.632-4.455s.081.758.207,2.11C230.216,293.346,233.724,334.719,227.574,347.4Z" fill="#d9d9d9"/>
          <path id="Path_108" data-name="Path 108" d="M313.773,444.616l-5.33,4.834s-35.8-18.784-45.25-42.861a133.07,133.07,0,0,1-6.952-27.323,54.778,54.778,0,0,1,8.684-16.6l45.836-22.328a52.706,52.706,0,0,1-.893,14.933c-10.226,10.839-27.81,30.353-32.968,41.535C270.57,410.521,303.872,437.113,313.773,444.616Z" fill="#1a45a2"/>
          <path id="Path_109" data-name="Path 109" d="M183.355,346.525l22.15,4.263s1.991-.793,2.324-1.88L182.534,344.1Z" fill="#c5c5c5"/>
          <path id="Path_110" data-name="Path 110" d="M227.574,347.4c-7,14.419-37.748,18.233-37.748,18.233l-1.866-5.518c5.167-1.786,22.832-8.829,30.01-24.159,5.591-11.939,4.825-26.042,3.661-34.221l5.808-15.862,1.839-2.345C230.216,293.346,233.724,334.719,227.574,347.4Z" fill="#c5c5c5"/>
          <path id="Path_111" data-name="Path 111" d="M292.834,320.1l-10.163,6.005-31.967,18.9a40.369,40.369,0,0,1-3.878-4.941c-8.954-13.139-19.469-39.245-17.755-50.355,1.975-12.787,7.674-16.727,7.674-16.727l7.367-4.121s.4-.072,1.118-.126a30.417,30.417,0,0,1,7.169.342,29.325,29.325,0,0,1,15.781,7.936C278.875,287.4,292.834,320.1,292.834,320.1Z" fill="#c1e6ff"/>
          <path id="Path_112" data-name="Path 112" d="M244.876,269.882l-6.26,7.131-1.811-1.859-3.689-3.792,7.237-7.478,1.324,1.756Z" fill="#ffb592"/>
          <path id="Path_113" data-name="Path 113" d="M287.46,322.311l-4.789,3.8-31.967,18.9a40.369,40.369,0,0,1-3.878-4.941c1.7-2.625,3.716-7.548,4.653-16.548,1.777-16.953-8.215-51.8-8.215-51.8l1.966-2.984a30.417,30.417,0,0,1,7.169.342Z" fill="#a7d2ea"/>
          <path id="Path_114" data-name="Path 114" d="M241.678,265.639c-.837,2.818-2.532,7.587-4.873,9.514l-3.688-3.792,7.237-7.478Z" fill="#c68e75"/>
          <path id="Path_115" data-name="Path 115" d="M216.53,258.057s-.261,8.348,4.347,12.608,14.957,2.261,18.087-2.782,4.348-19.652,4.348-19.652-10-6.174-16.348-6.174S216.617,249.361,216.53,258.057Z" fill="#ffb592"/>
          <path id="Path_116" data-name="Path 116" d="M240.964,256.144s2.087-2.174,4.435-.956,1.3,5.825-1.131,8.173a5.433,5.433,0,0,1-5.652.957Z" fill="#ffb592"/>
          <path id="Path_117" data-name="Path 117" d="M222.529,252.231l-1.434,5.826s-1.522-1.174-2.131-.348,1.3,2.565,3.044,2.522,1.782-7.217,1.478-8.3S222.731,251.412,222.529,252.231Z" fill="#ce7d5d"/>
          <path id="Path_118" data-name="Path 118" d="M228.69,248.172a2.636,2.636,0,0,1,2.4-1.369c1.771-.009,2.445,2.609,1.772,2.807s-.86-.785-1.93-1.039a2.12,2.12,0,0,0-1.706.225S228.321,249.157,228.69,248.172Z" fill="#00354c"/>
          <path id="Path_119" data-name="Path 119" d="M246.52,256.537a2.975,2.975,0,0,0-.794-1.127,2.529,2.529,0,0,0-2.155-.577c-2.236.351-3.039,4.093-3.039,4.093H238.62v-2.281a5.66,5.66,0,0,1-3.174-4.3,28.866,28.866,0,0,1,.812-7.774c-1.795-1.118-11.768-2.146-14-.946a5.676,5.676,0,0,0-2.39,2.57,5.261,5.261,0,0,0-.4,1.073c-1.271-.956-.622-3.075-.622-3.075-1.2-.334-3.427-1.7-2.9-2.678s2.417-1.173,2.417-1.173c-.785-.586-2.092-3.129,1.614-3s13.319-2.741,20.226-1.37,6.791,8.936,6.791,8.936c1.37.586,1.5,1.245,1.7,2.768S246.52,256.537,246.52,256.537Z" fill="#00486e"/>
          <path id="Path_120" data-name="Path 120" d="M230.355,252.861c0,.937-.392,1.7-.877,1.7s-.877-.759-.877-1.7.393-1.695.877-1.695S230.355,251.925,230.355,252.861Z" fill="#00354c"/>
          <ellipse id="Ellipse_3" data-name="Ellipse 3" cx="0.753" cy="1.457" rx="0.753" ry="1.457" transform="translate(219.399 251.405)" fill="#00354c"/>
          <path id="Path_121" data-name="Path 121" d="M241.777,256.059l-.785,1.434-6.357,2.606c-.19,2.47-.929,7.3-3.842,9.522-4,3.048-9.053,1.732-9.053,1.732a6.849,6.849,0,0,1-.749-.587c-1.614-1.388-5.239-5.4-4.536-12.895.027-.351.063-.712.117-1.082,0,0,1.308-1.037,5.438-1.47,3.436-.36,9.937,2.129,12.021,2.985A17.881,17.881,0,0,1,241.777,256.059Z" fill="#fff"/>
          <path id="Path_122" data-name="Path 122" d="M159.194,318.28v13.238l-5.582-1.317-13.283-3.138.559-5.636.424-4.211Z" fill="#4a79de" stroke="#00354c" stroke-miterlimit="10" stroke-width="1"/>
          <path id="Path_123" data-name="Path 123" d="M235.658,273.973s-2.541,8.328-.028,34.833c1.894,19.979,22.9,46.9,22.9,46.9l-20.991,6.956s-14.082-54.132-12.661-69.042,9.822-20.634,9.822-20.634Z" fill="#fff"/>
          <path id="Path_124" data-name="Path 124" d="M301.572,354.594c-2.552,19.036-62.185,47.423-62.185,47.423l-4.247,51.31H206.59s-.126-.342-.343-.983c-1.65-4.788-8.666-26.3-8.566-45.565.027-7.684,1.208-15.024,4.3-20.786.379-.7.776-1.407,1.19-2.1,8.423-14.14,23.157-24.88,31.823-30.362,4.157-2.633,6.926-4.049,6.926-4.049l16.664-10.217,33.852-20.75.514-.315s.514.793,1.29,2.227C297.108,325.7,303.583,339.634,301.572,354.594Z" fill="#3362c7"/>
          <path id="Path_125" data-name="Path 125" d="M301.572,354.594c-2.552,19.036-62.185,47.423-62.185,47.423l-4.247,51.31H221.262a160.078,160.078,0,0,0,9.865-26.277c5.374-19.072-3.156-25.511-2.246-28.6s29.93-13.553,48.019-27.512c14.482-11.182-8.549-26.142-18.315-31.67-2.434-1.371-4.049-2.164-4.049-2.164l34.682-21.083a15.924,15.924,0,0,1,3.219,2.5c.559.542,1.173,1.173,1.8,1.912C297.108,325.7,303.583,339.634,301.572,354.594Z" fill="#2b58ba"/>
          <path id="Path_126" data-name="Path 126" d="M238.864,354.873s-27.6,16.281-33.793,36.426c-4.941,16.051-.221,49.548,1.176,61.045-1.65-4.788-8.666-26.3-8.566-45.565.027-7.684,1.208-15.024,4.3-20.786.379-.7.776-1.407,1.19-2.1,8.423-14.14,22.449-24.428,31.115-29.911Z" fill="#4d7fe8"/>
          <path id="Path_127" data-name="Path 127" d="M328.7,321.8l-22.643,23.545L296.089,355.7a47.112,47.112,0,0,1-7.583-4.563c-30.462-22.309-44.412-82.3-44.412-82.3a22.32,22.32,0,0,1,10.442,0c7.647,1.731,15.4,7.033,21.994,14.87,6.367,7.565,27.017,21.714,40.345,30.479C323.764,318.713,328.7,321.8,328.7,321.8Z" fill="#fff"/>
          <path id="Path_128" data-name="Path 128" d="M316.875,314.186c-.785,1.659-1.723,3.7-2.823,6.2-2.966,6.727-5.87,16.773-8,24.961L296.089,355.7a47.112,47.112,0,0,1-7.583-4.563c.658-6.628.658-20.208-6.087-39.172-9.811-27.558-27.883-43.131-27.883-43.131,7.647,1.731,15.4,7.033,21.994,14.87C282.9,291.272,303.547,305.421,316.875,314.186Z" fill="#d9d9d9"/>
          <path id="Path_129" data-name="Path 129" d="M264.176,321.2c-.009-.009-.009-.009-.009-.018a32.869,32.869,0,0,1-3.014-4.46c-1.641-3.057-3.442-6.406-5.841-11.285-.009-.009-.451-.773-.451-.773a164.09,164.09,0,0,1-7.548-18.867c-4.788-14-4-17.99-4-17.99l5.744.415,9.649,14.7-5.474,8.26,9.477,7.3,1.4,21.543Z" fill="#ececec"/>
          <path id="Path_130" data-name="Path 130" d="M165.721,311.592l101.958,10.594-5.443,37.851L161.492,340.1a14.423,14.423,0,0,1-11.562-16.357h0A14.422,14.422,0,0,1,165.721,311.592Z" fill="#fff" stroke="#00354c" stroke-linecap="round" stroke-linejoin="round" stroke-width="0.75"/>
          <path id="Path_131" data-name="Path 131" d="M262.707,337.1l42.239,6.855-1.83,4.834-42.305-4.368Z" fill="#fff"/>
          <path id="Path_132" data-name="Path 132" d="M305.567,325.792l-6.258,13.391-16.349-7.214L280,330.661l8.008-30.777s-27.125-20.37-33.474-31.047c0,0,2.21.144,5.817.658,7.989,1.145,22.832,4.121,35.655,11.434a28.354,28.354,0,0,1,9.523,8.531,26.665,26.665,0,0,1,4.319,10.92C311.311,309.172,308.948,318.569,305.567,325.792Z" fill="#fff"/>
          <path id="Path_133" data-name="Path 133" d="M283.658,332.276l-.956,2.963s-5.775,1.437-6.757,3.7a3.957,3.957,0,0,0,.66,4.061s-.954,5.089.8,6.414,3.6-.477,3.6-.477a3.385,3.385,0,0,0,2.863.964,2.743,2.743,0,0,0,2.529-1.335,3.8,3.8,0,0,0,2.719-.424c1.113-.8,2.51-6.88,1.59-10.018l.887-2.341Z" fill="#ffb592" stroke="#00354c" stroke-miterlimit="10" stroke-width="1"/>
          <path id="Path_134" data-name="Path 134" d="M313.671,444.423l-2.212,9.116s-8.278,3.606-9.5,6.211,3.9,3.906,11.71,3.606,11.21-7.313,13.915-12.622,3.606-7.312,3.606-7.913-7.749-7.262-7.749-7.262Z" fill="#3f3e3e" stroke="#00354c" stroke-miterlimit="10" stroke-width="1"/>
          <path id="Path_135" data-name="Path 135" d="M301.406,344.5l3.54-8.544,3.21.769-4.272,19.651h-3.076Z" fill="#fff"/>
          <path id="Path_136" data-name="Path 136" d="M291.59,300.29l-8.63,31.679L280,330.661l8.008-30.777s-27.125-20.37-33.474-31.047c0,0,2.21.144,5.817.658a37.418,37.418,0,0,0,12.092,15.077c14.428,10.948,22.283,11.723,26.025,11.588S291.59,300.29,291.59,300.29Z" fill="#ececec"/>
          <path id="Path_137" data-name="Path 137" d="M246.971,249.638c-.442,2.219-1.073,5.005-1.245,5.772a2.529,2.529,0,0,0-2.155-.577c-2.236.351-3.039,4.093-3.039,4.093h-.766l-.361-4.112a6.545,6.545,0,0,1-2.8-5.176c-.189-3.616.62-4.632.62-4.632-1.795-1.119-12.73-2.582-14.966-1.382a5.676,5.676,0,0,0-2.39,2.57c-.09.072-.144.108-.144.108a3.166,3.166,0,0,1,0-2.309,2.933,2.933,0,0,1-2.246-1.451c-.586-1.29,3.156-1.164,3.156-1.164s-1.785-1.253-1.235-2.407,3.49-.1,8.089-.451,7.989-1.876,11.723-1.551,5.735,3.805,6.447,5.834a1.345,1.345,0,0,0-2.029,1.154c-.324,2,1.894,3.526,3.346,2.291C246.971,246.248,247.485,247.032,246.971,249.638Z" fill="#00354c"/>
          <path id="Path_138" data-name="Path 138" d="M283.71,333.6l6.83,3.691.781-1.626-7.265-3.166Z" fill="#c68e75"/>
          <path id="Path_139" data-name="Path 139" d="M245.393,256.583a2.285,2.285,0,0,0-2.081.773,4.394,4.394,0,0,0-1.076,2.158,1.122,1.122,0,0,1,.9.885c.145.774-1.143,1.369-1.143,1.369s-.284.967.671.9,1.76-1.787,1.583-2.77a1.753,1.753,0,0,0-1.111-1.288S245.779,256.857,245.393,256.583Z" fill="#c68e75"/>
          <path id="Path_140" data-name="Path 140" d="M309.85,300.38a6.5,6.5,0,0,1-6.357-6.348,6.2,6.2,0,0,1,2.038-4.572A26.665,26.665,0,0,1,309.85,300.38Z" fill="#ececec"/>
          <path id="Path_141" data-name="Path 141" d="M230.577,268.215c-2.182,2.029-5.8,2.993-9.586,2.551a12.979,12.979,0,0,1-3.021-3.913,16.2,16.2,0,0,1-1.515-8.982,13.57,13.57,0,0,1,5.8-1.316c4.986-.226,10.55,3.057,10.55,3.057S233.345,265.636,230.577,268.215Z" fill="#c1e6ff"/>
          <path id="Path_142" data-name="Path 142" d="M230.577,268.215c-2.182,2.029-5.8,2.993-9.586,2.551a12.979,12.979,0,0,1-3.021-3.913,9.927,9.927,0,0,0,8.747.072,11.206,11.206,0,0,0,6.087-7.313S233.345,265.636,230.577,268.215Z" fill="#a7d2ea"/>
          <path id="Path_143" data-name="Path 143" d="M294.232,393.243l-4.4,7.4s5.178.687,8-3.263Z" fill="#314891"/>
          <path id="Path_144" data-name="Path 144" d="M233.64,271.9l-4.569,17.814,4.046,6.323-2.35,8.556,3.589,14.348,3.666.392s-4.245-22.688-3.489-33.131,1.125-12.227,1.125-12.227Z" fill="#ececec"/>
          <path id="Path_145" data-name="Path 145" d="M215.941,320.832l-2.976,18.675-1.1,6.926-48.713-9.3a11.021,11.021,0,0,1-8.855-12.3v-.027a11.03,11.03,0,0,1,12.138-9.46Z" fill="#abc1f0"/>
          <path id="Path_146" data-name="Path 146" d="M263.554,325.151l-2.6,18.342c-9.4.2-24.636-.487-47.992-3.986l2.976-18.675Z" fill="#ececec"/>
          <path id="Path_147" data-name="Path 147" d="M260.957,343.493l-1.831,12.958-47.261-10.018,1.1-6.926C236.321,343.006,251.552,343.692,260.957,343.493Z" fill="#d9d9d9"/>
          <path id="Path_148" data-name="Path 148" d="M212.965,339.507l-1.1,6.926-48.713-9.3a11.021,11.021,0,0,1-8.855-12.3v-.027c9.063,3.85,26.629,9.757,56.567,14.374C211.577,339.291,212.271,339.4,212.965,339.507Z" fill="#94b0eb"/>
          <line id="Line_10" data-name="Line 10" x1="1.353" y2="10.025" transform="translate(165.072 320.832)" fill="none" stroke="#7787ff" stroke-linecap="round" stroke-linejoin="round" stroke-width="1"/>
          <line id="Line_11" data-name="Line 11" x1="1.353" y2="10.025" transform="translate(173.313 322.154)" fill="none" stroke="#7787ff" stroke-linecap="round" stroke-linejoin="round" stroke-width="1"/>
          <line id="Line_12" data-name="Line 12" x1="1.353" y2="10.025" transform="translate(181.35 323.524)" fill="none" stroke="#7787ff" stroke-linecap="round" stroke-linejoin="round" stroke-width="1"/>
          <line id="Line_13" data-name="Line 13" x1="1.353" y2="10.025" transform="translate(189.387 324.893)" fill="none" stroke="#7787ff" stroke-linecap="round" stroke-linejoin="round" stroke-width="1"/>
          <line id="Line_14" data-name="Line 14" x1="1.353" y2="10.025" transform="translate(197.423 326.263)" fill="none" stroke="#7787ff" stroke-linecap="round" stroke-linejoin="round" stroke-width="1"/>
          <line id="Line_15" data-name="Line 15" x1="1.353" y2="10.025" transform="translate(205.46 327.633)" fill="none" stroke="#7787ff" stroke-linecap="round" stroke-linejoin="round" stroke-width="1"/>
          <path id="Path_149" data-name="Path 149" d="M254.536,268.837a108.9,108.9,0,0,0,15.8,16.663c9.27,7.789,17.678,14.384,17.678,14.384L280,330.661l19.307,8.522" fill="none" stroke="#00354c" stroke-linecap="round" stroke-linejoin="round" stroke-width="0.75"/>
          <path id="Path_150" data-name="Path 150" d="M264.167,321.184c-17.229-23.99-20.857-53.375-20.857-53.375l5.744.415,9.649,14.7-5.474,8.26,9.477,7.3.848,13.022" fill="none" stroke="#00354c" stroke-linecap="round" stroke-linejoin="round" stroke-width="0.75"/>
          <path id="Path_151" data-name="Path 151" d="M262.236,360.037l5.443-37.851-58.137-6.041" fill="none" stroke="#00354c" stroke-linecap="round" stroke-linejoin="round" stroke-width="0.75"/>
          <line id="Line_16" data-name="Line 16" x2="10.468" y2="1.433" transform="translate(265.476 337.502)" fill="none" stroke="#00354c" stroke-linecap="round" stroke-linejoin="round" stroke-width="0.75"/>
          <path id="Path_152" data-name="Path 152" d="M290.968,341.688l10.871,1.764,3.107-7.5,3.21.769-4.272,19.651" fill="none" stroke="#00354c" stroke-linecap="round" stroke-linejoin="round" stroke-width="0.75"/>
          <path id="Path_153" data-name="Path 153" d="M235.658,273.973a95.912,95.912,0,0,0-.715,23.867c1.174,14.169,3.079,21.491,3.079,21.491" fill="none" stroke="#00354c" stroke-linecap="round" stroke-linejoin="round" stroke-width="0.75"/>
          <path id="Path_154" data-name="Path 154" d="M233.64,271.9l-4.569,17.814,4.046,6.323-1.992,9.476,3.232,13.428" fill="none" stroke="#00354c" stroke-linecap="round" stroke-linejoin="round" stroke-width="0.75"/>
          <path id="Path_155" data-name="Path 155" d="M290.425,299.707s1.8-2.824,8.656-3.055" fill="none" stroke="#00354c" stroke-linecap="round" stroke-linejoin="round" stroke-width="0.75"/>
          <path id="Path_156" data-name="Path 156" d="M310.291,309.808,328.7,321.8l-21.575,22.435" fill="none" stroke="#00354c" stroke-linecap="round" stroke-linejoin="round" stroke-width="0.75"/>
          <path id="Path_157" data-name="Path 157" d="M254.536,268.837s47.417,4.55,53.686,25.659c4.022,13.541-1.1,29.028-1.1,29.028" fill="none" stroke="#00354c" stroke-linecap="round" stroke-linejoin="round" stroke-width="0.75"/>
          <path id="Path_158" data-name="Path 158" d="M182.914,344.73l6.912,20.9s25.052-3.687,34-13.2" fill="none" stroke="#00354c" stroke-linecap="round" stroke-linejoin="round" stroke-width="0.75"/>
          <path id="Path_159" data-name="Path 159" d="M227.47,317.825s-4.744-19.874-1.446-30.638,6.823-12.562,6.823-12.562" fill="none" stroke="#00354c" stroke-linecap="round" stroke-linejoin="round" stroke-width="0.75"/>
          <line id="Line_17" data-name="Line 17" y1="23.233" x2="8.513" transform="translate(216.365 293.621)" fill="none" stroke="#00354c" stroke-linecap="round" stroke-linejoin="round" stroke-width="0.75"/>
          <path id="Path_160" data-name="Path 160" d="M217.97,249.059a36.854,36.854,0,0,0-1.6,12c.429,5.668,4.393,13.742,13.554,11.927s10.444-8.281,10.444-8.281" fill="none" stroke="#00354c" stroke-linecap="round" stroke-linejoin="round" stroke-width="0.75"/>
          <path id="Path_161" data-name="Path 161" d="M246.52,256.537s.754,5.348-2.9,7.346" fill="none" stroke="#00354c" stroke-linecap="round" stroke-linejoin="round" stroke-width="0.75"/>
          <path id="Path_162" data-name="Path 162" d="M217.686,258.926s1.2-.813,4.969-.716a21.16,21.16,0,0,1,6.416,1.111" fill="none" stroke="#00354c" stroke-linecap="round" stroke-linejoin="round" stroke-width="0.75"/>
          <line id="Line_18" data-name="Line 18" x2="5.717" y2="1.333" transform="translate(233.67 400.685)" fill="none" stroke="#00354c" stroke-linecap="round" stroke-linejoin="round" stroke-width="0.75"/>
          <path id="Path_163" data-name="Path 163" d="M233.918,354.433s-26.089,14.516-34.428,37.844c-7.641,21.374,7.1,61.05,7.1,61.05h28.55l4.247-51.31s59.641-30.917,61.421-45.645" fill="none" stroke="#00354c" stroke-linecap="round" stroke-linejoin="round" stroke-width="0.75"/>
          <path id="Path_164" data-name="Path 164" d="M258.69,391.862s3.827,16.35,11.207,26.355c9.515,12.9,38.546,31.233,38.546,31.233l19.433-17.63" fill="none" stroke="#00354c" stroke-linecap="round" stroke-linejoin="round" stroke-width="0.75"/>
          <path id="Path_165" data-name="Path 165" d="M289.192,400.685s4.153-4.145,5.04-7.442" fill="none" stroke="#00354c" stroke-linecap="round" stroke-linejoin="round" stroke-width="0.75"/>
          <path id="Path_166" data-name="Path 166" d="M316.487,455.9a26.452,26.452,0,0,0-5.028-2.365" fill="#3f3e3e" stroke="#00354c" stroke-miterlimit="10" stroke-width="1"/>
          <path id="Path_167" data-name="Path 167" d="M233.64,271.9l4.976,5.114,5-5.7" fill="none" stroke="#00354c" stroke-linecap="round" stroke-linejoin="round" stroke-width="0.75"/>
          <path id="Path_168" data-name="Path 168" d="M217.7,248.188a2.637,2.637,0,0,1,2.018-1.887c1.722-.418,2.982,1.974,2.374,2.321s-1.019-.565-2.118-.565a2.285,2.285,0,0,0-1.747,1.035S217.573,249.231,217.7,248.188Z" fill="#00354c"/>
        </g>
      </g>
      <path id="Path_169" data-name="Path 169" d="M174.493,140.884h-9.068v-8.63H157.6v8.63h-9.068v7.823H157.6v9.506h7.823v-9.506h9.068Z" fill="#4a79de"/>
      <path id="Path_170" data-name="Path 170" d="M174.493,375.456H163.223V364.73H153.5v10.726H142.228v9.724H153.5V397h9.724V385.18h11.271Z" fill="#4a79de"/>
      <path id="Path_171" data-name="Path 171" d="M358.037,128.586H342.472V113.774H329.044v14.812H313.48v13.428h15.564V158.33h13.428V142.014h15.564Z" fill="#4a79de"/>
    </g>
  </g>
</svg>
